<svg width="112" height="22" viewBox="0 0 112 22" fill="none" xmlns="http://www.w3.org/2000/svg">
<path d="M31.5852 18V4.90909H39.4858V6.31534H33.1705V10.7386H39.0767V12.1449H33.1705V16.5938H39.5881V18H31.5852ZM45.0277 18.2301C44.4055 18.2301 43.8409 18.1129 43.3338 17.8786C42.8267 17.6399 42.424 17.2969 42.1257 16.8494C41.8274 16.3977 41.6783 15.8523 41.6783 15.2131C41.6783 14.6506 41.7891 14.1946 42.0107 13.8452C42.2322 13.4915 42.5284 13.2145 42.8991 13.0142C43.2699 12.8139 43.679 12.6648 44.1264 12.5668C44.5781 12.4645 45.032 12.3835 45.4879 12.3239C46.0845 12.2472 46.5682 12.1896 46.9389 12.1513C47.3139 12.1087 47.5866 12.0384 47.7571 11.9403C47.9318 11.8423 48.0192 11.6719 48.0192 11.429V11.3778C48.0192 10.7472 47.8466 10.2571 47.5014 9.90767C47.1605 9.55824 46.6428 9.38352 45.9482 9.38352C45.228 9.38352 44.6634 9.54119 44.2543 9.85653C43.8452 10.1719 43.5575 10.5085 43.3913 10.8665L41.9595 10.3551C42.2152 9.75852 42.5561 9.29403 42.9822 8.96165C43.4126 8.625 43.8814 8.39062 44.3885 8.25852C44.8999 8.12216 45.4027 8.05398 45.897 8.05398C46.2124 8.05398 46.5746 8.09233 46.9837 8.16903C47.397 8.24148 47.7955 8.39276 48.179 8.62287C48.5668 8.85298 48.8885 9.20028 49.1442 9.66477C49.3999 10.1293 49.5277 10.7514 49.5277 11.5312V18H48.0192V16.6705H47.9425C47.8402 16.8835 47.6697 17.1115 47.4311 17.3544C47.1925 17.5973 46.875 17.804 46.4787 17.9744C46.0824 18.1449 45.5987 18.2301 45.0277 18.2301ZM45.2578 16.875C45.8544 16.875 46.3572 16.7578 46.7663 16.5234C47.1797 16.2891 47.4908 15.9865 47.6996 15.6158C47.9126 15.245 48.0192 14.8551 48.0192 14.446V13.0653C47.9553 13.142 47.8146 13.2124 47.5973 13.2763C47.3842 13.3359 47.1371 13.3892 46.8558 13.4361C46.5788 13.4787 46.3082 13.517 46.044 13.5511C45.7841 13.581 45.5732 13.6065 45.4112 13.6278C45.0192 13.679 44.6527 13.7621 44.3118 13.8771C43.9751 13.9879 43.7024 14.1562 43.4936 14.3821C43.2891 14.6037 43.1868 14.9062 43.1868 15.2898C43.1868 15.8139 43.3807 16.2102 43.7685 16.4787C44.1605 16.7429 44.657 16.875 45.2578 16.875ZM59.2356 10.3807L57.8805 10.7642C57.7953 10.5384 57.6696 10.3189 57.5034 10.1058C57.3414 9.88849 57.1199 9.70952 56.8386 9.56889C56.5574 9.42827 56.1973 9.35795 55.7583 9.35795C55.1575 9.35795 54.6568 9.49645 54.2562 9.77344C53.8599 10.0462 53.6618 10.3935 53.6618 10.8153C53.6618 11.1903 53.7981 11.4865 54.0708 11.7038C54.3436 11.9212 54.7697 12.1023 55.3493 12.2472L56.8066 12.6051C57.6845 12.8182 58.3386 13.1442 58.769 13.5831C59.1994 14.0178 59.4146 14.5781 59.4146 15.2642C59.4146 15.8267 59.2527 16.3295 58.9288 16.7727C58.6092 17.2159 58.1618 17.5653 57.5865 17.821C57.0112 18.0767 56.3422 18.2045 55.5794 18.2045C54.5779 18.2045 53.7491 17.9872 53.0929 17.5526C52.4366 17.1179 52.0211 16.483 51.8464 15.6477L53.2782 15.2898C53.4146 15.8182 53.6724 16.2145 54.0517 16.4787C54.4352 16.7429 54.9359 16.875 55.5538 16.875C56.2569 16.875 56.8152 16.7259 57.2285 16.4276C57.6461 16.125 57.8549 15.7628 57.8549 15.3409C57.8549 15 57.7356 14.7145 57.497 14.4844C57.2583 14.25 56.8919 14.0753 56.3976 13.9602L54.7612 13.5767C53.862 13.3636 53.2015 13.0334 52.7797 12.5859C52.362 12.1342 52.1532 11.5696 52.1532 10.892C52.1532 10.3381 52.3088 9.84801 52.6199 9.42188C52.9352 8.99574 53.3635 8.66122 53.9047 8.41832C54.4501 8.17543 55.068 8.05398 55.7583 8.05398C56.7299 8.05398 57.4927 8.26705 58.0467 8.69318C58.6049 9.11932 59.0012 9.68182 59.2356 10.3807ZM62.657 21.6818C62.4013 21.6818 62.1733 21.6605 61.973 21.6179C61.7727 21.5795 61.6342 21.5412 61.5575 21.5028L61.9411 20.1733C62.3075 20.267 62.6314 20.3011 62.9126 20.2756C63.1939 20.25 63.4432 20.1243 63.6605 19.8984C63.8821 19.6768 64.0845 19.3168 64.2678 18.8182L64.549 18.0511L60.9183 8.18182H62.5547L65.2649 16.0057H65.3672L68.0774 8.18182H69.7138L65.5462 19.4318C65.3587 19.9389 65.1264 20.3587 64.8494 20.6911C64.5724 21.0277 64.2507 21.277 63.8842 21.4389C63.522 21.6009 63.1129 21.6818 62.657 21.6818ZM71.2159 18H69.554L74.3608 4.90909H75.9972L80.804 18H79.142L75.2301 6.98011H75.1278L71.2159 18ZM71.8295 12.8864H78.5284V14.2926H71.8295V12.8864ZM88.826 13.9858V8.18182H90.3345V18H88.826V16.3381H88.7237C88.4936 16.8366 88.1357 17.2607 87.6499 17.6101C87.1641 17.9553 86.5504 18.1278 85.8089 18.1278C85.1953 18.1278 84.6499 17.9936 84.1726 17.7251C83.6953 17.4524 83.3203 17.0433 83.0476 16.4979C82.7749 15.9482 82.6385 15.2557 82.6385 14.4205V8.18182H84.147V14.3182C84.147 15.0341 84.3473 15.6051 84.7479 16.0312C85.1527 16.4574 85.6683 16.6705 86.2947 16.6705C86.6697 16.6705 87.0511 16.5746 87.4389 16.3828C87.831 16.1911 88.1591 15.897 88.4233 15.5007C88.6918 15.1044 88.826 14.5994 88.826 13.9858ZM97.3674 8.18182V9.46023H92.2793V8.18182H97.3674ZM93.7623 5.82955H95.2708V15.1875C95.2708 15.6136 95.3326 15.9332 95.4561 16.1463C95.584 16.3551 95.7459 16.4957 95.9419 16.5682C96.1422 16.6364 96.3532 16.6705 96.5748 16.6705C96.7409 16.6705 96.8773 16.6619 96.9838 16.6449C97.0904 16.6236 97.1756 16.6065 97.2395 16.5938L97.5463 17.9489C97.4441 17.9872 97.3013 18.0256 97.1181 18.0639C96.9348 18.1065 96.7026 18.1278 96.4213 18.1278C95.9952 18.1278 95.5776 18.0362 95.1685 17.853C94.7637 17.6697 94.427 17.3906 94.1586 17.0156C93.8944 16.6406 93.7623 16.1676 93.7623 15.5966V5.82955ZM101.356 12.0938V18H99.8475V4.90909H101.356V9.71591H101.484C101.714 9.20881 102.059 8.80611 102.519 8.50781C102.984 8.20526 103.602 8.05398 104.373 8.05398C105.042 8.05398 105.628 8.18821 106.131 8.45668C106.634 8.72088 107.024 9.12784 107.301 9.67756C107.582 10.223 107.722 10.9176 107.722 11.7614V18H106.214V11.8636C106.214 11.0838 106.012 10.4808 105.607 10.0547C105.206 9.62429 104.65 9.40909 103.938 9.40909C103.444 9.40909 103.001 9.51349 102.609 9.7223C102.221 9.93111 101.914 10.2358 101.688 10.6364C101.467 11.0369 101.356 11.5227 101.356 12.0938Z" fill="black"/>
<path d="M1.76001 1.76001V2.20001V7.92001H7.92001V1.76001H1.76001ZM14.08 1.76001V2.20001V7.92001H20.24V1.76001H14.08ZM2.64001 2.64001H7.04001V7.04001H2.64001V2.64001ZM8.80001 2.64001V3.08001V5.28001H10.56V6.60001H8.80001V7.04001V8.80001H4.84001V9.24001V10.56H3.08001V11V13.2H5.72001V11.44H7.04001V13.2H9.68001V9.68001H10.56V11.44H13.64V12.76H15.84V14.08H12.32V14.52V15.84H10.56V16.28V18.48H13.2V16.72H15.84V20.24H20.24V15.84H16.72V14.96H20.24V10.56H17.6V11V11.88H16.72V8.80001H11.44V7.48001H13.2V4.40001H11.44V2.64001H8.80001ZM14.96 2.64001H19.36V7.04001H14.96V2.64001ZM3.52001 3.52001V3.96001V6.16001H6.16001V3.52001H3.52001ZM9.68001 3.52001H10.56V4.40001H9.68001V3.52001ZM15.84 3.52001V3.96001V6.16001H18.48V3.52001H15.84ZM4.40001 4.40001H5.28001V5.28001H4.40001V4.40001ZM16.72 4.40001H17.6V5.28001H16.72V4.40001ZM11.44 5.28001H12.32V6.60001H11.44V5.28001ZM9.68001 7.48001H10.56V8.80001H9.68001V7.48001ZM5.72001 9.68001H8.80001V12.32H7.92001V10.56H5.72001V9.68001ZM11.44 9.68001H15.84V11.88H14.52V10.56H11.44V9.68001ZM3.96001 11.44H4.84001V12.32H3.96001V11.44ZM18.48 11.44H19.36V14.08H16.72V12.76H18.48V11.44ZM1.76001 14.08V14.52V20.24H7.92001V14.08H1.76001ZM2.64001 14.96H7.04001V19.36H2.64001V14.96ZM13.2 14.96H15.84V15.84H13.2V14.96ZM3.52001 15.84V16.28V18.48H6.16001V15.84H3.52001ZM4.40001 16.72H5.28001V17.6H4.40001V16.72ZM11.44 16.72H12.32V17.6H11.44V16.72ZM16.72 16.72H19.36V19.36H16.72V16.72Z" fill="black"/>
</svg>
