<svg width="428" height="391" viewBox="0 0 428 391" fill="none" xmlns="http://www.w3.org/2000/svg">
<g filter="url(#filter0_f_642_158)">
<path d="M-18.9062 7.04688C-19.7143 7.04688 -20.4893 7.36788 -21.0607 7.93928C-21.6321 8.51068 -21.9531 9.28567 -21.9531 10.0938V192.906C-21.9531 193.714 -21.6321 194.489 -21.0607 195.061C-20.4893 195.632 -19.7143 195.953 -18.9062 195.953H163.906C164.714 195.953 165.489 195.632 166.061 195.061C166.632 194.489 166.953 193.714 166.953 192.906V10.0938C166.953 9.28567 166.632 8.51068 166.061 7.93928C165.489 7.36788 164.714 7.04688 163.906 7.04688H-18.9062ZM-15.8594 13.1406H160.859V189.859H-15.8594V13.1406ZM-6.71875 19.2344C-7.52683 19.2344 -8.30182 19.5554 -8.87322 20.1268C-9.44462 20.6982 -9.76562 21.4732 -9.76562 22.2812V95.4062C-9.76562 96.2143 -9.44462 96.9893 -8.87322 97.5607C-8.30182 98.1321 -7.52683 98.4531 -6.71875 98.4531H11.5625C12.3706 98.4531 13.1456 98.1321 13.717 97.5607C14.2884 96.9893 14.6094 96.2143 14.6094 95.4062C14.6094 94.5982 14.2884 93.8232 13.717 93.2518C13.1456 92.6804 12.3706 92.3594 11.5625 92.3594H-3.67188V25.3281H63.3594V46.6562C63.3594 47.4643 63.6804 48.2393 64.2518 48.8107C64.8232 49.3821 65.5982 49.7031 66.4062 49.7031C67.2143 49.7031 67.9893 49.3821 68.5607 48.8107C69.1321 48.2393 69.4531 47.4643 69.4531 46.6562V22.2812C69.4531 21.4732 69.1321 20.6982 68.5607 20.1268C67.9893 19.5554 67.2143 19.2344 66.4062 19.2344H-6.71875ZM75.5469 19.2344C74.7388 19.2344 73.9638 19.5554 73.3924 20.1268C72.821 20.6982 72.5 21.4732 72.5 22.2812V77.125C72.5 77.9331 72.821 78.7081 73.3924 79.2795C73.9638 79.8509 74.7388 80.1719 75.5469 80.1719H87.7344C88.5425 80.1719 89.3174 79.8509 89.8888 79.2795C90.4602 78.7081 90.7812 77.9331 90.7812 77.125V22.2812C90.7812 21.4732 90.4602 20.6982 89.8888 20.1268C89.3174 19.5554 88.5425 19.2344 87.7344 19.2344H75.5469ZM96.875 19.2344C96.0669 19.2344 95.2919 19.5554 94.7205 20.1268C94.1491 20.6982 93.8281 21.4732 93.8281 22.2812V40.5625C93.8281 41.3706 94.1491 42.1456 94.7205 42.717C95.2919 43.2884 96.0669 43.6094 96.875 43.6094C97.6831 43.6094 98.4581 43.2884 99.0295 42.717C99.6009 42.1456 99.9219 41.3706 99.9219 40.5625V25.3281H148.672V74.0781H106.016C105.208 74.0781 104.433 74.3991 103.861 74.9705C103.29 75.5419 102.969 76.3169 102.969 77.125V86.2656C102.969 87.0737 103.29 87.8487 103.861 88.4201C104.433 88.9915 105.208 89.3125 106.016 89.3125H151.719C152.527 89.3125 153.302 88.9915 153.873 88.4201C154.445 87.8487 154.766 87.0737 154.766 86.2656C154.766 85.4575 154.445 84.6826 153.873 84.1112C153.302 83.5398 152.527 83.2188 151.719 83.2188H109.062V80.1719H151.719C152.527 80.1719 153.302 79.8509 153.873 79.2795C154.445 78.7081 154.766 77.9331 154.766 77.125V22.2812C154.766 21.4732 154.445 20.6982 153.873 20.1268C153.302 19.5554 152.527 19.2344 151.719 19.2344H96.875ZM78.5938 25.3281H84.6875V74.0781H78.5938V25.3281ZM2.42188 28.375C1.61379 28.375 0.838809 28.696 0.26741 29.2674C-0.30399 29.8388 -0.625 30.6138 -0.625 31.4219V86.2656C-0.625 87.0737 -0.30399 87.8487 0.26741 88.4201C0.838809 88.9915 1.61379 89.3125 2.42188 89.3125H57.2656C58.0737 89.3125 58.8487 88.9915 59.4201 88.4201C59.9915 87.8487 60.3125 87.0737 60.3125 86.2656V31.4219C60.3125 30.6138 59.9915 29.8388 59.4201 29.2674C58.8487 28.696 58.0737 28.375 57.2656 28.375H2.42188ZM115.156 28.375C114.348 28.375 113.573 28.696 113.002 29.2674C112.43 29.8388 112.109 30.6138 112.109 31.4219C112.109 32.23 112.43 33.0049 113.002 33.5763C113.573 34.1477 114.348 34.4688 115.156 34.4688H142.578C143.386 34.4688 144.161 34.1477 144.733 33.5763C145.304 33.0049 145.625 32.23 145.625 31.4219C145.625 30.6138 145.304 29.8388 144.733 29.2674C144.161 28.696 143.386 28.375 142.578 28.375H115.156ZM105.926 28.3765C105.134 28.3997 104.382 28.7307 103.83 29.2993C103.278 29.8679 102.969 30.6293 102.969 31.4219V67.9844C102.969 68.7925 103.29 69.5674 103.861 70.1388C104.433 70.7102 105.208 71.0312 106.016 71.0312C106.824 71.0312 107.599 70.7102 108.17 70.1388C108.741 69.5674 109.062 68.7925 109.062 67.9844V31.4219C109.062 31.0143 108.981 30.6108 108.822 30.2354C108.663 29.8599 108.431 29.5202 108.138 29.2362C107.846 28.9522 107.499 28.7298 107.119 28.5822C106.739 28.4345 106.334 28.3645 105.926 28.3765V28.3765ZM5.46875 34.4688H54.2188V83.2188H5.46875V34.4688ZM11.5625 37.5156C10.7544 37.5156 9.97943 37.8366 9.40803 38.408C8.83663 38.9794 8.51562 39.7544 8.51562 40.5625V58.8438C8.51562 59.6518 8.83663 60.4268 9.40803 60.9982C9.97943 61.5696 10.7544 61.8906 11.5625 61.8906H29.8438C30.6518 61.8906 31.4268 61.5696 31.9982 60.9982C32.5696 60.4268 32.8906 59.6518 32.8906 58.8438V40.5625C32.8906 39.7544 32.5696 38.9794 31.9982 38.408C31.4268 37.8366 30.6518 37.5156 29.8438 37.5156H11.5625ZM115.156 37.5156C114.348 37.5156 113.573 37.8366 113.002 38.408C112.43 38.9794 112.109 39.7544 112.109 40.5625V67.9844C112.109 68.7925 112.43 69.5674 113.002 70.1388C113.573 70.7102 114.348 71.0312 115.156 71.0312C115.964 71.0312 116.739 70.7102 117.311 70.1388C117.882 69.5674 118.203 68.7925 118.203 67.9844V43.6094H142.578C143.386 43.6094 144.161 43.2884 144.733 42.717C145.304 42.1456 145.625 41.3706 145.625 40.5625C145.625 39.7544 145.304 38.9794 144.733 38.408C144.161 37.8366 143.386 37.5156 142.578 37.5156H115.156ZM38.8951 37.5171C38.1029 37.5403 37.3508 37.8714 36.7986 38.4399C36.2464 39.0085 35.9375 39.7699 35.9375 40.5625V64.9375H11.5625C10.7544 64.9375 9.97943 65.2585 9.40803 65.8299C8.83663 66.4013 8.51562 67.1763 8.51562 67.9844C8.51562 68.7925 8.83663 69.5674 9.40803 70.1388C9.97943 70.7102 10.7544 71.0312 11.5625 71.0312H38.9844C39.7925 71.0312 40.5674 70.7102 41.1388 70.1388C41.7102 69.5674 42.0312 68.7925 42.0312 67.9844V40.5625C42.0312 40.1549 41.9494 39.7514 41.7907 39.376C41.6319 39.0005 41.3994 38.6608 41.107 38.3768C40.8145 38.0929 40.4681 37.8704 40.0882 37.7228C39.7083 37.5751 39.3026 37.5052 38.8951 37.5171V37.5171ZM48.0357 37.5171C47.2435 37.5403 46.4915 37.8714 45.9393 38.4399C45.3871 39.0085 45.0782 39.7699 45.0781 40.5625V77.125C45.0781 77.9331 45.3991 78.7081 45.9705 79.2795C46.5419 79.8509 47.3169 80.1719 48.125 80.1719C48.9331 80.1719 49.7081 79.8509 50.2795 79.2795C50.8509 78.7081 51.1719 77.9331 51.1719 77.125V40.5625C51.1719 40.1549 51.09 39.7514 50.9313 39.376C50.7725 39.0005 50.54 38.6608 50.2476 38.3768C49.9552 38.0929 49.6087 37.8704 49.2288 37.7228C48.8489 37.5751 48.4432 37.5052 48.0357 37.5171V37.5171ZM14.6094 43.6094H26.7969V55.7969H14.6094V43.6094ZM124.297 46.6562C123.489 46.6562 122.714 46.9773 122.142 47.5487C121.571 48.1201 121.25 48.895 121.25 49.7031V67.9844C121.25 68.7925 121.571 69.5674 122.142 70.1388C122.714 70.7102 123.489 71.0312 124.297 71.0312H142.578C143.386 71.0312 144.161 70.7102 144.733 70.1388C145.304 69.5674 145.625 68.7925 145.625 67.9844V49.7031C145.625 48.895 145.304 48.1201 144.733 47.5487C144.161 46.9773 143.386 46.6562 142.578 46.6562H124.297ZM96.7857 46.6577C95.9935 46.681 95.2415 47.012 94.6893 47.5806C94.1371 48.1492 93.8282 48.9105 93.8281 49.7031V83.2188H69.4531V55.7969C69.4531 54.9888 69.1321 54.2138 68.5607 53.6424C67.9893 53.071 67.2143 52.75 66.4062 52.75C65.5982 52.75 64.8232 53.071 64.2518 53.6424C63.6804 54.2138 63.3594 54.9888 63.3594 55.7969V86.2656C63.3594 87.0737 63.6804 87.8487 64.2518 88.4201C64.8232 88.9915 65.5982 89.3125 66.4062 89.3125H96.875C97.6831 89.3125 98.4581 88.9915 99.0295 88.4201C99.6009 87.8487 99.9219 87.0737 99.9219 86.2656V49.7031C99.9219 49.2955 99.84 48.892 99.6813 48.5166C99.5225 48.1412 99.29 47.8014 98.9976 47.5174C98.7052 47.2335 98.3587 47.0111 97.9788 46.8634C97.5989 46.7157 97.1932 46.6458 96.7857 46.6577V46.6577ZM127.344 52.75H139.531V64.9375H127.344V52.75ZM11.5625 74.0781C10.7544 74.0781 9.97943 74.3991 9.40803 74.9705C8.83663 75.5419 8.51562 76.3169 8.51562 77.125C8.51562 77.9331 8.83663 78.7081 9.40803 79.2795C9.97943 79.8509 10.7544 80.1719 11.5625 80.1719H38.9844C39.7925 80.1719 40.5674 79.8509 41.1388 79.2795C41.7102 78.7081 42.0312 77.9331 42.0312 77.125C42.0312 76.3169 41.7102 75.5419 41.1388 74.9705C40.5674 74.3991 39.7925 74.0781 38.9844 74.0781H11.5625ZM23.75 92.3594C22.9419 92.3594 22.1669 92.6804 21.5955 93.2518C21.0241 93.8232 20.7031 94.5982 20.7031 95.4062C20.7031 96.2143 21.0241 96.9893 21.5955 97.5607C22.1669 98.1321 22.9419 98.4531 23.75 98.4531H151.719C152.527 98.4531 153.302 98.1321 153.873 97.5607C154.445 96.9893 154.766 96.2143 154.766 95.4062C154.766 94.5982 154.445 93.8232 153.873 93.2518C153.302 92.6804 152.527 92.3594 151.719 92.3594H23.75ZM-6.71875 104.547C-7.52683 104.547 -8.30182 104.868 -8.87322 105.439C-9.44462 106.011 -9.76562 106.786 -9.76562 107.594C-9.76562 108.402 -9.44462 109.177 -8.87322 109.748C-8.30182 110.32 -7.52683 110.641 -6.71875 110.641H63.3594V180.719C63.3594 181.527 63.6804 182.302 64.2518 182.873C64.8232 183.445 65.5982 183.766 66.4062 183.766C67.2143 183.766 67.9893 183.445 68.5607 182.873C69.1321 182.302 69.4531 181.527 69.4531 180.719V107.594C69.4531 106.786 69.1321 106.011 68.5607 105.439C67.9893 104.868 67.2143 104.547 66.4062 104.547H-6.71875ZM78.5938 104.547C77.7857 104.547 77.0107 104.868 76.4393 105.439C75.8679 106.011 75.5469 106.786 75.5469 107.594V180.719C75.5469 181.527 75.8679 182.302 76.4393 182.873C77.0107 183.445 77.7857 183.766 78.5938 183.766H151.719C152.527 183.766 153.302 183.445 153.873 182.873C154.445 182.302 154.766 181.527 154.766 180.719V107.594C154.766 106.786 154.445 106.011 153.873 105.439C153.302 104.868 152.527 104.547 151.719 104.547H78.5938ZM81.6406 110.641H148.672V177.672H81.6406V110.641ZM-6.71875 113.688C-7.52683 113.688 -8.30182 114.009 -8.87322 114.58C-9.44462 115.151 -9.76562 115.926 -9.76562 116.734C-9.76562 117.542 -9.44462 118.317 -8.87322 118.889C-8.30182 119.46 -7.52683 119.781 -6.71875 119.781H54.2188V141.109H42.0312V128.922H48.125C48.9331 128.922 49.7081 128.601 50.2795 128.029C50.8509 127.458 51.1719 126.683 51.1719 125.875C51.1719 125.067 50.8509 124.292 50.2795 123.721C49.7081 123.149 48.9331 122.828 48.125 122.828H38.9844C38.1763 122.828 37.4013 123.149 36.8299 123.721C36.2585 124.292 35.9375 125.067 35.9375 125.875V144.156C35.9375 144.964 36.2585 145.739 36.8299 146.311C37.4013 146.882 38.1763 147.203 38.9844 147.203H57.2656C58.0737 147.203 58.8487 146.882 59.4201 146.311C59.9915 145.739 60.3125 144.964 60.3125 144.156V116.734C60.3125 115.926 59.9915 115.151 59.4201 114.58C58.8487 114.009 58.0737 113.688 57.2656 113.688H-6.71875ZM87.6451 113.689C86.8529 113.712 86.1008 114.043 85.5486 114.612C84.9964 115.18 84.6875 115.942 84.6875 116.734V171.578C84.6875 172.386 85.0085 173.161 85.5799 173.733C86.1513 174.304 86.9263 174.625 87.7344 174.625H142.578C143.386 174.625 144.161 174.304 144.733 173.733C145.304 173.161 145.625 172.386 145.625 171.578V122.828C145.625 122.02 145.304 121.245 144.733 120.674C144.161 120.102 143.386 119.781 142.578 119.781C141.77 119.781 140.995 120.102 140.424 120.674C139.852 121.245 139.531 122.02 139.531 122.828V168.531H90.7812V116.734C90.7812 116.327 90.6994 115.923 90.5407 115.548C90.3819 115.172 90.1494 114.833 89.857 114.549C89.5646 114.265 89.2181 114.042 88.8382 113.895C88.4582 113.747 88.0526 113.677 87.6451 113.689ZM-6.71875 122.828C-7.52683 122.828 -8.30182 123.149 -8.87322 123.721C-9.44462 124.292 -9.76562 125.067 -9.76562 125.875C-9.76562 126.683 -9.44462 127.458 -8.87322 128.029C-8.30182 128.601 -7.52683 128.922 -6.71875 128.922H17.6562V180.719C17.6562 181.527 17.9773 182.302 18.5487 182.873C19.1201 183.445 19.895 183.766 20.7031 183.766C21.5112 183.766 22.2862 183.445 22.8576 182.873C23.429 182.302 23.75 181.527 23.75 180.719V125.875C23.75 125.067 23.429 124.292 22.8576 123.721C22.2862 123.149 21.5112 122.828 20.7031 122.828H-6.71875ZM29.933 122.83C29.5256 122.818 29.1199 122.888 28.7399 123.035C28.36 123.183 28.0136 123.405 27.7211 123.689C27.4287 123.973 27.1962 124.313 27.0375 124.688C26.8787 125.064 26.7969 125.467 26.7969 125.875V180.719C26.7969 181.527 27.1179 182.302 27.6893 182.873C28.2607 183.445 29.0357 183.766 29.8438 183.766H57.2656C58.0737 183.766 58.8487 183.445 59.4201 182.873C59.9915 182.302 60.3125 181.527 60.3125 180.719C60.3125 179.911 59.9915 179.136 59.4201 178.564C58.8487 177.993 58.0737 177.672 57.2656 177.672H32.8906V125.875C32.8906 125.082 32.5817 124.321 32.0295 123.752C31.4773 123.184 30.7253 122.853 29.933 122.83ZM99.9219 125.875C99.1138 125.875 98.3388 126.196 97.7674 126.767C97.196 127.339 96.875 128.114 96.875 128.922V159.391C96.875 160.199 97.196 160.974 97.7674 161.545C98.3388 162.116 99.1138 162.438 99.9219 162.438H130.391C131.199 162.438 131.974 162.116 132.545 161.545C133.116 160.974 133.438 160.199 133.438 159.391V128.922C133.438 128.114 133.116 127.339 132.545 126.767C131.974 126.196 131.199 125.875 130.391 125.875H99.9219ZM-6.71875 131.969C-7.52683 131.969 -8.30182 132.29 -8.87322 132.861C-9.44462 133.433 -9.76562 134.208 -9.76562 135.016V153.297C-9.76562 154.105 -9.44462 154.88 -8.87322 155.451C-8.30182 156.023 -7.52683 156.344 -6.71875 156.344H11.5625C12.3706 156.344 13.1456 156.023 13.717 155.451C14.2884 154.88 14.6094 154.105 14.6094 153.297V135.016C14.6094 134.208 14.2884 133.433 13.717 132.861C13.1456 132.29 12.3706 131.969 11.5625 131.969H-6.71875ZM102.969 131.969H127.344V156.344H102.969V131.969ZM-3.67188 138.062H8.51562V150.25H-3.67188V138.062ZM38.9844 150.25C38.1763 150.25 37.4013 150.571 36.8299 151.142C36.2585 151.714 35.9375 152.489 35.9375 153.297V171.578C35.9375 172.386 36.2585 173.161 36.8299 173.733C37.4013 174.304 38.1763 174.625 38.9844 174.625H57.2656C58.0737 174.625 58.8487 174.304 59.4201 173.733C59.9915 173.161 60.3125 172.386 60.3125 171.578V153.297C60.3125 152.489 59.9915 151.714 59.4201 151.142C58.8487 150.571 58.0737 150.25 57.2656 150.25H38.9844ZM42.0312 156.344H54.2188V168.531H42.0312V156.344ZM-6.71875 159.391C-7.52683 159.391 -8.30182 159.712 -8.87322 160.283C-9.44462 160.854 -9.76562 161.629 -9.76562 162.438C-9.76562 163.246 -9.44462 164.021 -8.87322 164.592C-8.30182 165.163 -7.52683 165.484 -6.71875 165.484H11.5625C12.3706 165.484 13.1456 165.163 13.717 164.592C14.2884 164.021 14.6094 163.246 14.6094 162.438C14.6094 161.629 14.2884 160.854 13.717 160.283C13.1456 159.712 12.3706 159.391 11.5625 159.391H-6.71875ZM-6.71875 168.531C-7.52683 168.531 -8.30182 168.852 -8.87322 169.424C-9.44462 169.995 -9.76562 170.77 -9.76562 171.578C-9.76562 172.386 -9.44462 173.161 -8.87322 173.733C-8.30182 174.304 -7.52683 174.625 -6.71875 174.625H11.5625C12.3706 174.625 13.1456 174.304 13.717 173.733C14.2884 173.161 14.6094 172.386 14.6094 171.578C14.6094 170.77 14.2884 169.995 13.717 169.424C13.1456 168.852 12.3706 168.531 11.5625 168.531H-6.71875ZM-6.71875 177.672C-7.52683 177.672 -8.30182 177.993 -8.87322 178.564C-9.44462 179.136 -9.76562 179.911 -9.76562 180.719C-9.76562 181.527 -9.44462 182.302 -8.87322 182.873C-8.30182 183.445 -7.52683 183.766 -6.71875 183.766H11.5625C12.3706 183.766 13.1456 183.445 13.717 182.873C14.2884 182.302 14.6094 181.527 14.6094 180.719C14.6094 179.911 14.2884 179.136 13.717 178.564C13.1456 177.993 12.3706 177.672 11.5625 177.672H-6.71875Z" fill="black"/>
<path d="M358.906 7.04688C359.714 7.04688 360.489 7.36788 361.061 7.93928C361.632 8.51068 361.953 9.28567 361.953 10.0938V192.906C361.953 193.714 361.632 194.489 361.061 195.061C360.489 195.632 359.714 195.953 358.906 195.953H176.094C175.286 195.953 174.511 195.632 173.939 195.061C173.368 194.489 173.047 193.714 173.047 192.906V10.0938C173.047 9.28567 173.368 8.51068 173.939 7.93928C174.511 7.36788 175.286 7.04688 176.094 7.04688H358.906ZM355.859 13.1406H179.141V189.859H355.859V13.1406ZM346.719 19.2344C347.527 19.2344 348.302 19.5554 348.873 20.1268C349.445 20.6982 349.766 21.4732 349.766 22.2812V95.4062C349.766 96.2143 349.445 96.9893 348.873 97.5607C348.302 98.1321 347.527 98.4531 346.719 98.4531H328.438C327.629 98.4531 326.854 98.1321 326.283 97.5607C325.712 96.9893 325.391 96.2143 325.391 95.4062C325.391 94.5982 325.712 93.8232 326.283 93.2518C326.854 92.6804 327.629 92.3594 328.438 92.3594H343.672V25.3281H276.641V46.6562C276.641 47.4643 276.32 48.2393 275.748 48.8107C275.177 49.3821 274.402 49.7031 273.594 49.7031C272.786 49.7031 272.011 49.3821 271.439 48.8107C270.868 48.2393 270.547 47.4643 270.547 46.6562V22.2812C270.547 21.4732 270.868 20.6982 271.439 20.1268C272.011 19.5554 272.786 19.2344 273.594 19.2344H346.719ZM264.453 19.2344C265.261 19.2344 266.036 19.5554 266.608 20.1268C267.179 20.6982 267.5 21.4732 267.5 22.2812V77.125C267.5 77.9331 267.179 78.7081 266.608 79.2795C266.036 79.8509 265.261 80.1719 264.453 80.1719H252.266C251.458 80.1719 250.683 79.8509 250.111 79.2795C249.54 78.7081 249.219 77.9331 249.219 77.125V22.2812C249.219 21.4732 249.54 20.6982 250.111 20.1268C250.683 19.5554 251.458 19.2344 252.266 19.2344H264.453ZM243.125 19.2344C243.933 19.2344 244.708 19.5554 245.279 20.1268C245.851 20.6982 246.172 21.4732 246.172 22.2812V40.5625C246.172 41.3706 245.851 42.1456 245.279 42.717C244.708 43.2884 243.933 43.6094 243.125 43.6094C242.317 43.6094 241.542 43.2884 240.971 42.717C240.399 42.1456 240.078 41.3706 240.078 40.5625V25.3281H191.328V74.0781H233.984C234.792 74.0781 235.567 74.3991 236.139 74.9705C236.71 75.5419 237.031 76.3169 237.031 77.125V86.2656C237.031 87.0737 236.71 87.8487 236.139 88.4201C235.567 88.9915 234.792 89.3125 233.984 89.3125H188.281C187.473 89.3125 186.698 88.9915 186.127 88.4201C185.555 87.8487 185.234 87.0737 185.234 86.2656C185.234 85.4575 185.555 84.6826 186.127 84.1112C186.698 83.5398 187.473 83.2188 188.281 83.2188H230.938V80.1719H188.281C187.473 80.1719 186.698 79.8509 186.127 79.2795C185.555 78.7081 185.234 77.9331 185.234 77.125V22.2812C185.234 21.4732 185.555 20.6982 186.127 20.1268C186.698 19.5554 187.473 19.2344 188.281 19.2344H243.125ZM261.406 25.3281H255.312V74.0781H261.406V25.3281ZM337.578 28.375C338.386 28.375 339.161 28.696 339.733 29.2674C340.304 29.8388 340.625 30.6138 340.625 31.4219V86.2656C340.625 87.0737 340.304 87.8487 339.733 88.4201C339.161 88.9915 338.386 89.3125 337.578 89.3125H282.734C281.926 89.3125 281.151 88.9915 280.58 88.4201C280.009 87.8487 279.688 87.0737 279.688 86.2656V31.4219C279.688 30.6138 280.009 29.8388 280.58 29.2674C281.151 28.696 281.926 28.375 282.734 28.375H337.578ZM224.844 28.375C225.652 28.375 226.427 28.696 226.998 29.2674C227.57 29.8388 227.891 30.6138 227.891 31.4219C227.891 32.23 227.57 33.0049 226.998 33.5763C226.427 34.1477 225.652 34.4688 224.844 34.4688H197.422C196.614 34.4688 195.839 34.1477 195.267 33.5763C194.696 33.0049 194.375 32.23 194.375 31.4219C194.375 30.6138 194.696 29.8388 195.267 29.2674C195.839 28.696 196.614 28.375 197.422 28.375H224.844ZM234.074 28.3765C234.866 28.3997 235.618 28.7307 236.17 29.2993C236.722 29.8679 237.031 30.6293 237.031 31.4219V67.9844C237.031 68.7925 236.71 69.5674 236.139 70.1388C235.567 70.7102 234.792 71.0312 233.984 71.0312C233.176 71.0312 232.401 70.7102 231.83 70.1388C231.259 69.5674 230.938 68.7925 230.938 67.9844V31.4219C230.938 31.0143 231.019 30.6108 231.178 30.2354C231.337 29.8599 231.569 29.5202 231.862 29.2362C232.154 28.9522 232.501 28.7298 232.881 28.5822C233.261 28.4345 233.666 28.3645 234.074 28.3765V28.3765ZM334.531 34.4688H285.781V83.2188H334.531V34.4688ZM328.438 37.5156C329.246 37.5156 330.021 37.8366 330.592 38.408C331.163 38.9794 331.484 39.7544 331.484 40.5625V58.8438C331.484 59.6518 331.163 60.4268 330.592 60.9982C330.021 61.5696 329.246 61.8906 328.438 61.8906H310.156C309.348 61.8906 308.573 61.5696 308.002 60.9982C307.43 60.4268 307.109 59.6518 307.109 58.8438V40.5625C307.109 39.7544 307.43 38.9794 308.002 38.408C308.573 37.8366 309.348 37.5156 310.156 37.5156H328.438ZM224.844 37.5156C225.652 37.5156 226.427 37.8366 226.998 38.408C227.57 38.9794 227.891 39.7544 227.891 40.5625V67.9844C227.891 68.7925 227.57 69.5674 226.998 70.1388C226.427 70.7102 225.652 71.0312 224.844 71.0312C224.036 71.0312 223.261 70.7102 222.689 70.1388C222.118 69.5674 221.797 68.7925 221.797 67.9844V43.6094H197.422C196.614 43.6094 195.839 43.2884 195.267 42.717C194.696 42.1456 194.375 41.3706 194.375 40.5625C194.375 39.7544 194.696 38.9794 195.267 38.408C195.839 37.8366 196.614 37.5156 197.422 37.5156H224.844ZM301.105 37.5171C301.897 37.5403 302.649 37.8714 303.201 38.4399C303.754 39.0085 304.062 39.7699 304.062 40.5625V64.9375H328.438C329.246 64.9375 330.021 65.2585 330.592 65.8299C331.163 66.4013 331.484 67.1763 331.484 67.9844C331.484 68.7925 331.163 69.5674 330.592 70.1388C330.021 70.7102 329.246 71.0312 328.438 71.0312H301.016C300.208 71.0312 299.433 70.7102 298.861 70.1388C298.29 69.5674 297.969 68.7925 297.969 67.9844V40.5625C297.969 40.1549 298.051 39.7514 298.209 39.376C298.368 39.0005 298.601 38.6608 298.893 38.3768C299.185 38.0929 299.532 37.8704 299.912 37.7228C300.292 37.5751 300.697 37.5052 301.105 37.5171V37.5171ZM291.964 37.5171C292.757 37.5403 293.509 37.8714 294.061 38.4399C294.613 39.0085 294.922 39.7699 294.922 40.5625V77.125C294.922 77.9331 294.601 78.7081 294.029 79.2795C293.458 79.8509 292.683 80.1719 291.875 80.1719C291.067 80.1719 290.292 79.8509 289.721 79.2795C289.149 78.7081 288.828 77.9331 288.828 77.125V40.5625C288.828 40.1549 288.91 39.7514 289.069 39.376C289.227 39.0005 289.46 38.6608 289.752 38.3768C290.045 38.0929 290.391 37.8704 290.771 37.7228C291.151 37.5751 291.557 37.5052 291.964 37.5171V37.5171ZM325.391 43.6094H313.203V55.7969H325.391V43.6094ZM215.703 46.6562C216.511 46.6562 217.286 46.9773 217.858 47.5487C218.429 48.1201 218.75 48.895 218.75 49.7031V67.9844C218.75 68.7925 218.429 69.5674 217.858 70.1388C217.286 70.7102 216.511 71.0312 215.703 71.0312H197.422C196.614 71.0312 195.839 70.7102 195.267 70.1388C194.696 69.5674 194.375 68.7925 194.375 67.9844V49.7031C194.375 48.895 194.696 48.1201 195.267 47.5487C195.839 46.9773 196.614 46.6562 197.422 46.6562H215.703ZM243.214 46.6577C244.007 46.681 244.759 47.012 245.311 47.5806C245.863 48.1492 246.172 48.9105 246.172 49.7031V83.2188H270.547V55.7969C270.547 54.9888 270.868 54.2138 271.439 53.6424C272.011 53.071 272.786 52.75 273.594 52.75C274.402 52.75 275.177 53.071 275.748 53.6424C276.32 54.2138 276.641 54.9888 276.641 55.7969V86.2656C276.641 87.0737 276.32 87.8487 275.748 88.4201C275.177 88.9915 274.402 89.3125 273.594 89.3125H243.125C242.317 89.3125 241.542 88.9915 240.971 88.4201C240.399 87.8487 240.078 87.0737 240.078 86.2656V49.7031C240.078 49.2955 240.16 48.892 240.319 48.5166C240.477 48.1412 240.71 47.8014 241.002 47.5174C241.295 47.2335 241.641 47.0111 242.021 46.8634C242.401 46.7157 242.807 46.6458 243.214 46.6577V46.6577ZM212.656 52.75H200.469V64.9375H212.656V52.75ZM328.438 74.0781C329.246 74.0781 330.021 74.3991 330.592 74.9705C331.163 75.5419 331.484 76.3169 331.484 77.125C331.484 77.9331 331.163 78.7081 330.592 79.2795C330.021 79.8509 329.246 80.1719 328.438 80.1719H301.016C300.208 80.1719 299.433 79.8509 298.861 79.2795C298.29 78.7081 297.969 77.9331 297.969 77.125C297.969 76.3169 298.29 75.5419 298.861 74.9705C299.433 74.3991 300.208 74.0781 301.016 74.0781H328.438ZM316.25 92.3594C317.058 92.3594 317.833 92.6804 318.404 93.2518C318.976 93.8232 319.297 94.5982 319.297 95.4062C319.297 96.2143 318.976 96.9893 318.404 97.5607C317.833 98.1321 317.058 98.4531 316.25 98.4531H188.281C187.473 98.4531 186.698 98.1321 186.127 97.5607C185.555 96.9893 185.234 96.2143 185.234 95.4062C185.234 94.5982 185.555 93.8232 186.127 93.2518C186.698 92.6804 187.473 92.3594 188.281 92.3594H316.25ZM346.719 104.547C347.527 104.547 348.302 104.868 348.873 105.439C349.445 106.011 349.766 106.786 349.766 107.594C349.766 108.402 349.445 109.177 348.873 109.748C348.302 110.32 347.527 110.641 346.719 110.641H276.641V180.719C276.641 181.527 276.32 182.302 275.748 182.873C275.177 183.445 274.402 183.766 273.594 183.766C272.786 183.766 272.011 183.445 271.439 182.873C270.868 182.302 270.547 181.527 270.547 180.719V107.594C270.547 106.786 270.868 106.011 271.439 105.439C272.011 104.868 272.786 104.547 273.594 104.547H346.719ZM261.406 104.547C262.214 104.547 262.989 104.868 263.561 105.439C264.132 106.011 264.453 106.786 264.453 107.594V180.719C264.453 181.527 264.132 182.302 263.561 182.873C262.989 183.445 262.214 183.766 261.406 183.766H188.281C187.473 183.766 186.698 183.445 186.127 182.873C185.555 182.302 185.234 181.527 185.234 180.719V107.594C185.234 106.786 185.555 106.011 186.127 105.439C186.698 104.868 187.473 104.547 188.281 104.547H261.406ZM258.359 110.641H191.328V177.672H258.359V110.641ZM346.719 113.688C347.527 113.688 348.302 114.009 348.873 114.58C349.445 115.151 349.766 115.926 349.766 116.734C349.766 117.542 349.445 118.317 348.873 118.889C348.302 119.46 347.527 119.781 346.719 119.781H285.781V141.109H297.969V128.922H291.875C291.067 128.922 290.292 128.601 289.721 128.029C289.149 127.458 288.828 126.683 288.828 125.875C288.828 125.067 289.149 124.292 289.721 123.721C290.292 123.149 291.067 122.828 291.875 122.828H301.016C301.824 122.828 302.599 123.149 303.17 123.721C303.741 124.292 304.062 125.067 304.062 125.875V144.156C304.062 144.964 303.741 145.739 303.17 146.311C302.599 146.882 301.824 147.203 301.016 147.203H282.734C281.926 147.203 281.151 146.882 280.58 146.311C280.009 145.739 279.688 144.964 279.688 144.156V116.734C279.688 115.926 280.009 115.151 280.58 114.58C281.151 114.009 281.926 113.688 282.734 113.688H346.719ZM252.355 113.689C253.147 113.712 253.899 114.043 254.451 114.612C255.004 115.18 255.312 115.942 255.312 116.734V171.578C255.312 172.386 254.991 173.161 254.42 173.733C253.849 174.304 253.074 174.625 252.266 174.625H197.422C196.614 174.625 195.839 174.304 195.267 173.733C194.696 173.161 194.375 172.386 194.375 171.578V122.828C194.375 122.02 194.696 121.245 195.267 120.674C195.839 120.102 196.614 119.781 197.422 119.781C198.23 119.781 199.005 120.102 199.576 120.674C200.148 121.245 200.469 122.02 200.469 122.828V168.531H249.219V116.734C249.219 116.327 249.301 115.923 249.459 115.548C249.618 115.172 249.851 114.833 250.143 114.549C250.435 114.265 250.782 114.042 251.162 113.895C251.542 113.747 251.947 113.677 252.355 113.689ZM346.719 122.828C347.527 122.828 348.302 123.149 348.873 123.721C349.445 124.292 349.766 125.067 349.766 125.875C349.766 126.683 349.445 127.458 348.873 128.029C348.302 128.601 347.527 128.922 346.719 128.922H322.344V180.719C322.344 181.527 322.023 182.302 321.451 182.873C320.88 183.445 320.105 183.766 319.297 183.766C318.489 183.766 317.714 183.445 317.142 182.873C316.571 182.302 316.25 181.527 316.25 180.719V125.875C316.25 125.067 316.571 124.292 317.142 123.721C317.714 123.149 318.489 122.828 319.297 122.828H346.719ZM310.067 122.83C310.474 122.818 310.88 122.888 311.26 123.035C311.64 123.183 311.986 123.405 312.279 123.689C312.571 123.973 312.804 124.313 312.963 124.688C313.121 125.064 313.203 125.467 313.203 125.875V180.719C313.203 181.527 312.882 182.302 312.311 182.873C311.739 183.445 310.964 183.766 310.156 183.766H282.734C281.926 183.766 281.151 183.445 280.58 182.873C280.009 182.302 279.688 181.527 279.688 180.719C279.688 179.911 280.009 179.136 280.58 178.564C281.151 177.993 281.926 177.672 282.734 177.672H307.109V125.875C307.109 125.082 307.418 124.321 307.971 123.752C308.523 123.184 309.275 122.853 310.067 122.83ZM240.078 125.875C240.886 125.875 241.661 126.196 242.233 126.767C242.804 127.339 243.125 128.114 243.125 128.922V159.391C243.125 160.199 242.804 160.974 242.233 161.545C241.661 162.116 240.886 162.438 240.078 162.438H209.609C208.801 162.438 208.026 162.116 207.455 161.545C206.884 160.974 206.562 160.199 206.562 159.391V128.922C206.562 128.114 206.884 127.339 207.455 126.767C208.026 126.196 208.801 125.875 209.609 125.875H240.078ZM346.719 131.969C347.527 131.969 348.302 132.29 348.873 132.861C349.445 133.433 349.766 134.208 349.766 135.016V153.297C349.766 154.105 349.445 154.88 348.873 155.451C348.302 156.023 347.527 156.344 346.719 156.344H328.438C327.629 156.344 326.854 156.023 326.283 155.451C325.712 154.88 325.391 154.105 325.391 153.297V135.016C325.391 134.208 325.712 133.433 326.283 132.861C326.854 132.29 327.629 131.969 328.438 131.969H346.719ZM237.031 131.969H212.656V156.344H237.031V131.969ZM343.672 138.062H331.484V150.25H343.672V138.062ZM301.016 150.25C301.824 150.25 302.599 150.571 303.17 151.142C303.741 151.714 304.062 152.489 304.062 153.297V171.578C304.062 172.386 303.741 173.161 303.17 173.733C302.599 174.304 301.824 174.625 301.016 174.625H282.734C281.926 174.625 281.151 174.304 280.58 173.733C280.009 173.161 279.688 172.386 279.688 171.578V153.297C279.688 152.489 280.009 151.714 280.58 151.142C281.151 150.571 281.926 150.25 282.734 150.25H301.016ZM297.969 156.344H285.781V168.531H297.969V156.344ZM346.719 159.391C347.527 159.391 348.302 159.712 348.873 160.283C349.445 160.854 349.766 161.629 349.766 162.438C349.766 163.246 349.445 164.021 348.873 164.592C348.302 165.163 347.527 165.484 346.719 165.484H328.438C327.629 165.484 326.854 165.163 326.283 164.592C325.712 164.021 325.391 163.246 325.391 162.438C325.391 161.629 325.712 160.854 326.283 160.283C326.854 159.712 327.629 159.391 328.438 159.391H346.719ZM346.719 168.531C347.527 168.531 348.302 168.852 348.873 169.424C349.445 169.995 349.766 170.77 349.766 171.578C349.766 172.386 349.445 173.161 348.873 173.733C348.302 174.304 347.527 174.625 346.719 174.625H328.438C327.629 174.625 326.854 174.304 326.283 173.733C325.712 173.161 325.391 172.386 325.391 171.578C325.391 170.77 325.712 169.995 326.283 169.424C326.854 168.852 327.629 168.531 328.438 168.531H346.719ZM346.719 177.672C347.527 177.672 348.302 177.993 348.873 178.564C349.445 179.136 349.766 179.911 349.766 180.719C349.766 181.527 349.445 182.302 348.873 182.873C348.302 183.445 347.527 183.766 346.719 183.766H328.438C327.629 183.766 326.854 183.445 326.283 182.873C325.712 182.302 325.391 181.527 325.391 180.719C325.391 179.911 325.712 179.136 326.283 178.564C326.854 177.993 327.629 177.672 328.438 177.672H346.719Z" fill="black"/>
<path d="M553.906 7.04688C554.714 7.04688 555.489 7.36788 556.061 7.93928C556.632 8.51068 556.953 9.28567 556.953 10.0938V192.906C556.953 193.714 556.632 194.489 556.061 195.061C555.489 195.632 554.714 195.953 553.906 195.953H371.094C370.286 195.953 369.511 195.632 368.939 195.061C368.368 194.489 368.047 193.714 368.047 192.906V10.0938C368.047 9.28567 368.368 8.51068 368.939 7.93928C369.511 7.36788 370.286 7.04688 371.094 7.04688H553.906ZM550.859 13.1406H374.141V189.859H550.859V13.1406ZM541.719 19.2344C542.527 19.2344 543.302 19.5554 543.873 20.1268C544.445 20.6982 544.766 21.4732 544.766 22.2812V95.4062C544.766 96.2143 544.445 96.9893 543.873 97.5607C543.302 98.1321 542.527 98.4531 541.719 98.4531H523.438C522.629 98.4531 521.854 98.1321 521.283 97.5607C520.712 96.9893 520.391 96.2143 520.391 95.4062C520.391 94.5982 520.712 93.8232 521.283 93.2518C521.854 92.6804 522.629 92.3594 523.438 92.3594H538.672V25.3281H471.641V46.6562C471.641 47.4643 471.32 48.2393 470.748 48.8107C470.177 49.3821 469.402 49.7031 468.594 49.7031C467.786 49.7031 467.011 49.3821 466.439 48.8107C465.868 48.2393 465.547 47.4643 465.547 46.6562V22.2812C465.547 21.4732 465.868 20.6982 466.439 20.1268C467.011 19.5554 467.786 19.2344 468.594 19.2344H541.719ZM459.453 19.2344C460.261 19.2344 461.036 19.5554 461.608 20.1268C462.179 20.6982 462.5 21.4732 462.5 22.2812V77.125C462.5 77.9331 462.179 78.7081 461.608 79.2795C461.036 79.8509 460.261 80.1719 459.453 80.1719H447.266C446.458 80.1719 445.683 79.8509 445.111 79.2795C444.54 78.7081 444.219 77.9331 444.219 77.125V22.2812C444.219 21.4732 444.54 20.6982 445.111 20.1268C445.683 19.5554 446.458 19.2344 447.266 19.2344H459.453ZM438.125 19.2344C438.933 19.2344 439.708 19.5554 440.279 20.1268C440.851 20.6982 441.172 21.4732 441.172 22.2812V40.5625C441.172 41.3706 440.851 42.1456 440.279 42.717C439.708 43.2884 438.933 43.6094 438.125 43.6094C437.317 43.6094 436.542 43.2884 435.971 42.717C435.399 42.1456 435.078 41.3706 435.078 40.5625V25.3281H386.328V74.0781H428.984C429.792 74.0781 430.567 74.3991 431.139 74.9705C431.71 75.5419 432.031 76.3169 432.031 77.125V86.2656C432.031 87.0737 431.71 87.8487 431.139 88.4201C430.567 88.9915 429.792 89.3125 428.984 89.3125H383.281C382.473 89.3125 381.698 88.9915 381.127 88.4201C380.555 87.8487 380.234 87.0737 380.234 86.2656C380.234 85.4575 380.555 84.6826 381.127 84.1112C381.698 83.5398 382.473 83.2188 383.281 83.2188H425.938V80.1719H383.281C382.473 80.1719 381.698 79.8509 381.127 79.2795C380.555 78.7081 380.234 77.9331 380.234 77.125V22.2812C380.234 21.4732 380.555 20.6982 381.127 20.1268C381.698 19.5554 382.473 19.2344 383.281 19.2344H438.125ZM456.406 25.3281H450.312V74.0781H456.406V25.3281ZM532.578 28.375C533.386 28.375 534.161 28.696 534.733 29.2674C535.304 29.8388 535.625 30.6138 535.625 31.4219V86.2656C535.625 87.0737 535.304 87.8487 534.733 88.4201C534.161 88.9915 533.386 89.3125 532.578 89.3125H477.734C476.926 89.3125 476.151 88.9915 475.58 88.4201C475.009 87.8487 474.688 87.0737 474.688 86.2656V31.4219C474.688 30.6138 475.009 29.8388 475.58 29.2674C476.151 28.696 476.926 28.375 477.734 28.375H532.578ZM419.844 28.375C420.652 28.375 421.427 28.696 421.998 29.2674C422.57 29.8388 422.891 30.6138 422.891 31.4219C422.891 32.23 422.57 33.0049 421.998 33.5763C421.427 34.1477 420.652 34.4688 419.844 34.4688H392.422C391.614 34.4688 390.839 34.1477 390.267 33.5763C389.696 33.0049 389.375 32.23 389.375 31.4219C389.375 30.6138 389.696 29.8388 390.267 29.2674C390.839 28.696 391.614 28.375 392.422 28.375H419.844ZM429.074 28.3765C429.866 28.3997 430.618 28.7307 431.17 29.2993C431.722 29.8679 432.031 30.6293 432.031 31.4219V67.9844C432.031 68.7925 431.71 69.5674 431.139 70.1388C430.567 70.7102 429.792 71.0312 428.984 71.0312C428.176 71.0312 427.401 70.7102 426.83 70.1388C426.259 69.5674 425.938 68.7925 425.938 67.9844V31.4219C425.938 31.0143 426.019 30.6108 426.178 30.2354C426.337 29.8599 426.569 29.5202 426.862 29.2362C427.154 28.9522 427.501 28.7298 427.881 28.5822C428.261 28.4345 428.666 28.3645 429.074 28.3765V28.3765ZM529.531 34.4688H480.781V83.2188H529.531V34.4688ZM523.438 37.5156C524.246 37.5156 525.021 37.8366 525.592 38.408C526.163 38.9794 526.484 39.7544 526.484 40.5625V58.8438C526.484 59.6518 526.163 60.4268 525.592 60.9982C525.021 61.5696 524.246 61.8906 523.438 61.8906H505.156C504.348 61.8906 503.573 61.5696 503.002 60.9982C502.43 60.4268 502.109 59.6518 502.109 58.8438V40.5625C502.109 39.7544 502.43 38.9794 503.002 38.408C503.573 37.8366 504.348 37.5156 505.156 37.5156H523.438ZM419.844 37.5156C420.652 37.5156 421.427 37.8366 421.998 38.408C422.57 38.9794 422.891 39.7544 422.891 40.5625V67.9844C422.891 68.7925 422.57 69.5674 421.998 70.1388C421.427 70.7102 420.652 71.0312 419.844 71.0312C419.036 71.0312 418.261 70.7102 417.689 70.1388C417.118 69.5674 416.797 68.7925 416.797 67.9844V43.6094H392.422C391.614 43.6094 390.839 43.2884 390.267 42.717C389.696 42.1456 389.375 41.3706 389.375 40.5625C389.375 39.7544 389.696 38.9794 390.267 38.408C390.839 37.8366 391.614 37.5156 392.422 37.5156H419.844ZM496.105 37.5171C496.897 37.5403 497.649 37.8714 498.201 38.4399C498.754 39.0085 499.062 39.7699 499.062 40.5625V64.9375H523.438C524.246 64.9375 525.021 65.2585 525.592 65.8299C526.163 66.4013 526.484 67.1763 526.484 67.9844C526.484 68.7925 526.163 69.5674 525.592 70.1388C525.021 70.7102 524.246 71.0312 523.438 71.0312H496.016C495.208 71.0312 494.433 70.7102 493.861 70.1388C493.29 69.5674 492.969 68.7925 492.969 67.9844V40.5625C492.969 40.1549 493.051 39.7514 493.209 39.376C493.368 39.0005 493.601 38.6608 493.893 38.3768C494.185 38.0929 494.532 37.8704 494.912 37.7228C495.292 37.5751 495.697 37.5052 496.105 37.5171V37.5171ZM486.964 37.5171C487.757 37.5403 488.509 37.8714 489.061 38.4399C489.613 39.0085 489.922 39.7699 489.922 40.5625V77.125C489.922 77.9331 489.601 78.7081 489.029 79.2795C488.458 79.8509 487.683 80.1719 486.875 80.1719C486.067 80.1719 485.292 79.8509 484.721 79.2795C484.149 78.7081 483.828 77.9331 483.828 77.125V40.5625C483.828 40.1549 483.91 39.7514 484.069 39.376C484.227 39.0005 484.46 38.6608 484.752 38.3768C485.045 38.0929 485.391 37.8704 485.771 37.7228C486.151 37.5751 486.557 37.5052 486.964 37.5171V37.5171ZM520.391 43.6094H508.203V55.7969H520.391V43.6094ZM410.703 46.6562C411.511 46.6562 412.286 46.9773 412.858 47.5487C413.429 48.1201 413.75 48.895 413.75 49.7031V67.9844C413.75 68.7925 413.429 69.5674 412.858 70.1388C412.286 70.7102 411.511 71.0312 410.703 71.0312H392.422C391.614 71.0312 390.839 70.7102 390.267 70.1388C389.696 69.5674 389.375 68.7925 389.375 67.9844V49.7031C389.375 48.895 389.696 48.1201 390.267 47.5487C390.839 46.9773 391.614 46.6562 392.422 46.6562H410.703ZM438.214 46.6577C439.007 46.681 439.759 47.012 440.311 47.5806C440.863 48.1492 441.172 48.9105 441.172 49.7031V83.2188H465.547V55.7969C465.547 54.9888 465.868 54.2138 466.439 53.6424C467.011 53.071 467.786 52.75 468.594 52.75C469.402 52.75 470.177 53.071 470.748 53.6424C471.32 54.2138 471.641 54.9888 471.641 55.7969V86.2656C471.641 87.0737 471.32 87.8487 470.748 88.4201C470.177 88.9915 469.402 89.3125 468.594 89.3125H438.125C437.317 89.3125 436.542 88.9915 435.971 88.4201C435.399 87.8487 435.078 87.0737 435.078 86.2656V49.7031C435.078 49.2955 435.16 48.892 435.319 48.5166C435.477 48.1412 435.71 47.8014 436.002 47.5174C436.295 47.2335 436.641 47.0111 437.021 46.8634C437.401 46.7157 437.807 46.6458 438.214 46.6577V46.6577ZM407.656 52.75H395.469V64.9375H407.656V52.75ZM523.438 74.0781C524.246 74.0781 525.021 74.3991 525.592 74.9705C526.163 75.5419 526.484 76.3169 526.484 77.125C526.484 77.9331 526.163 78.7081 525.592 79.2795C525.021 79.8509 524.246 80.1719 523.438 80.1719H496.016C495.208 80.1719 494.433 79.8509 493.861 79.2795C493.29 78.7081 492.969 77.9331 492.969 77.125C492.969 76.3169 493.29 75.5419 493.861 74.9705C494.433 74.3991 495.208 74.0781 496.016 74.0781H523.438ZM511.25 92.3594C512.058 92.3594 512.833 92.6804 513.404 93.2518C513.976 93.8232 514.297 94.5982 514.297 95.4062C514.297 96.2143 513.976 96.9893 513.404 97.5607C512.833 98.1321 512.058 98.4531 511.25 98.4531H383.281C382.473 98.4531 381.698 98.1321 381.127 97.5607C380.555 96.9893 380.234 96.2143 380.234 95.4062C380.234 94.5982 380.555 93.8232 381.127 93.2518C381.698 92.6804 382.473 92.3594 383.281 92.3594H511.25ZM541.719 104.547C542.527 104.547 543.302 104.868 543.873 105.439C544.445 106.011 544.766 106.786 544.766 107.594C544.766 108.402 544.445 109.177 543.873 109.748C543.302 110.32 542.527 110.641 541.719 110.641H471.641V180.719C471.641 181.527 471.32 182.302 470.748 182.873C470.177 183.445 469.402 183.766 468.594 183.766C467.786 183.766 467.011 183.445 466.439 182.873C465.868 182.302 465.547 181.527 465.547 180.719V107.594C465.547 106.786 465.868 106.011 466.439 105.439C467.011 104.868 467.786 104.547 468.594 104.547H541.719ZM456.406 104.547C457.214 104.547 457.989 104.868 458.561 105.439C459.132 106.011 459.453 106.786 459.453 107.594V180.719C459.453 181.527 459.132 182.302 458.561 182.873C457.989 183.445 457.214 183.766 456.406 183.766H383.281C382.473 183.766 381.698 183.445 381.127 182.873C380.555 182.302 380.234 181.527 380.234 180.719V107.594C380.234 106.786 380.555 106.011 381.127 105.439C381.698 104.868 382.473 104.547 383.281 104.547H456.406ZM453.359 110.641H386.328V177.672H453.359V110.641ZM541.719 113.688C542.527 113.688 543.302 114.009 543.873 114.58C544.445 115.151 544.766 115.926 544.766 116.734C544.766 117.542 544.445 118.317 543.873 118.889C543.302 119.46 542.527 119.781 541.719 119.781H480.781V141.109H492.969V128.922H486.875C486.067 128.922 485.292 128.601 484.721 128.029C484.149 127.458 483.828 126.683 483.828 125.875C483.828 125.067 484.149 124.292 484.721 123.721C485.292 123.149 486.067 122.828 486.875 122.828H496.016C496.824 122.828 497.599 123.149 498.17 123.721C498.741 124.292 499.062 125.067 499.062 125.875V144.156C499.062 144.964 498.741 145.739 498.17 146.311C497.599 146.882 496.824 147.203 496.016 147.203H477.734C476.926 147.203 476.151 146.882 475.58 146.311C475.009 145.739 474.688 144.964 474.688 144.156V116.734C474.688 115.926 475.009 115.151 475.58 114.58C476.151 114.009 476.926 113.688 477.734 113.688H541.719ZM447.355 113.689C448.147 113.712 448.899 114.043 449.451 114.612C450.004 115.18 450.312 115.942 450.312 116.734V171.578C450.312 172.386 449.991 173.161 449.42 173.733C448.849 174.304 448.074 174.625 447.266 174.625H392.422C391.614 174.625 390.839 174.304 390.267 173.733C389.696 173.161 389.375 172.386 389.375 171.578V122.828C389.375 122.02 389.696 121.245 390.267 120.674C390.839 120.102 391.614 119.781 392.422 119.781C393.23 119.781 394.005 120.102 394.576 120.674C395.148 121.245 395.469 122.02 395.469 122.828V168.531H444.219V116.734C444.219 116.327 444.301 115.923 444.459 115.548C444.618 115.172 444.851 114.833 445.143 114.549C445.435 114.265 445.782 114.042 446.162 113.895C446.542 113.747 446.947 113.677 447.355 113.689ZM541.719 122.828C542.527 122.828 543.302 123.149 543.873 123.721C544.445 124.292 544.766 125.067 544.766 125.875C544.766 126.683 544.445 127.458 543.873 128.029C543.302 128.601 542.527 128.922 541.719 128.922H517.344V180.719C517.344 181.527 517.023 182.302 516.451 182.873C515.88 183.445 515.105 183.766 514.297 183.766C513.489 183.766 512.714 183.445 512.142 182.873C511.571 182.302 511.25 181.527 511.25 180.719V125.875C511.25 125.067 511.571 124.292 512.142 123.721C512.714 123.149 513.489 122.828 514.297 122.828H541.719ZM505.067 122.83C505.474 122.818 505.88 122.888 506.26 123.035C506.64 123.183 506.986 123.405 507.279 123.689C507.571 123.973 507.804 124.313 507.963 124.688C508.121 125.064 508.203 125.467 508.203 125.875V180.719C508.203 181.527 507.882 182.302 507.311 182.873C506.739 183.445 505.964 183.766 505.156 183.766H477.734C476.926 183.766 476.151 183.445 475.58 182.873C475.009 182.302 474.688 181.527 474.688 180.719C474.688 179.911 475.009 179.136 475.58 178.564C476.151 177.993 476.926 177.672 477.734 177.672H502.109V125.875C502.109 125.082 502.418 124.321 502.971 123.752C503.523 123.184 504.275 122.853 505.067 122.83ZM435.078 125.875C435.886 125.875 436.661 126.196 437.233 126.767C437.804 127.339 438.125 128.114 438.125 128.922V159.391C438.125 160.199 437.804 160.974 437.233 161.545C436.661 162.116 435.886 162.438 435.078 162.438H404.609C403.801 162.438 403.026 162.116 402.455 161.545C401.884 160.974 401.562 160.199 401.562 159.391V128.922C401.562 128.114 401.884 127.339 402.455 126.767C403.026 126.196 403.801 125.875 404.609 125.875H435.078ZM541.719 131.969C542.527 131.969 543.302 132.29 543.873 132.861C544.445 133.433 544.766 134.208 544.766 135.016V153.297C544.766 154.105 544.445 154.88 543.873 155.451C543.302 156.023 542.527 156.344 541.719 156.344H523.438C522.629 156.344 521.854 156.023 521.283 155.451C520.712 154.88 520.391 154.105 520.391 153.297V135.016C520.391 134.208 520.712 133.433 521.283 132.861C521.854 132.29 522.629 131.969 523.438 131.969H541.719ZM432.031 131.969H407.656V156.344H432.031V131.969ZM538.672 138.062H526.484V150.25H538.672V138.062ZM496.016 150.25C496.824 150.25 497.599 150.571 498.17 151.142C498.741 151.714 499.062 152.489 499.062 153.297V171.578C499.062 172.386 498.741 173.161 498.17 173.733C497.599 174.304 496.824 174.625 496.016 174.625H477.734C476.926 174.625 476.151 174.304 475.58 173.733C475.009 173.161 474.688 172.386 474.688 171.578V153.297C474.688 152.489 475.009 151.714 475.58 151.142C476.151 150.571 476.926 150.25 477.734 150.25H496.016ZM492.969 156.344H480.781V168.531H492.969V156.344ZM541.719 159.391C542.527 159.391 543.302 159.712 543.873 160.283C544.445 160.854 544.766 161.629 544.766 162.438C544.766 163.246 544.445 164.021 543.873 164.592C543.302 165.163 542.527 165.484 541.719 165.484H523.438C522.629 165.484 521.854 165.163 521.283 164.592C520.712 164.021 520.391 163.246 520.391 162.438C520.391 161.629 520.712 160.854 521.283 160.283C521.854 159.712 522.629 159.391 523.438 159.391H541.719ZM541.719 168.531C542.527 168.531 543.302 168.852 543.873 169.424C544.445 169.995 544.766 170.77 544.766 171.578C544.766 172.386 544.445 173.161 543.873 173.733C543.302 174.304 542.527 174.625 541.719 174.625H523.438C522.629 174.625 521.854 174.304 521.283 173.733C520.712 173.161 520.391 172.386 520.391 171.578C520.391 170.77 520.712 169.995 521.283 169.424C521.854 168.852 522.629 168.531 523.438 168.531H541.719ZM541.719 177.672C542.527 177.672 543.302 177.993 543.873 178.564C544.445 179.136 544.766 179.911 544.766 180.719C544.766 181.527 544.445 182.302 543.873 182.873C543.302 183.445 542.527 183.766 541.719 183.766H523.438C522.629 183.766 521.854 183.445 521.283 182.873C520.712 182.302 520.391 181.527 520.391 180.719C520.391 179.911 520.712 179.136 521.283 178.564C521.854 177.993 522.629 177.672 523.438 177.672H541.719Z" fill="black"/>
</g>
<g filter="url(#filter1_f_642_158)">
<path d="M-69.9062 387.953C-70.7143 387.953 -71.4893 387.632 -72.0607 387.061C-72.6321 386.489 -72.9531 385.714 -72.9531 384.906V202.094C-72.9531 201.286 -72.6321 200.511 -72.0607 199.939C-71.4893 199.368 -70.7143 199.047 -69.9062 199.047H112.906C113.714 199.047 114.489 199.368 115.061 199.939C115.632 200.511 115.953 201.286 115.953 202.094V384.906C115.953 385.714 115.632 386.489 115.061 387.061C114.489 387.632 113.714 387.953 112.906 387.953H-69.9062ZM-66.8594 381.859H109.859V205.141H-66.8594V381.859ZM-57.7188 375.766C-58.5268 375.766 -59.3018 375.445 -59.8732 374.873C-60.4446 374.302 -60.7656 373.527 -60.7656 372.719V299.594C-60.7656 298.786 -60.4446 298.011 -59.8732 297.439C-59.3018 296.868 -58.5268 296.547 -57.7188 296.547H-39.4375C-38.6294 296.547 -37.8544 296.868 -37.283 297.439C-36.7116 298.011 -36.3906 298.786 -36.3906 299.594C-36.3906 300.402 -36.7116 301.177 -37.283 301.748C-37.8544 302.32 -38.6294 302.641 -39.4375 302.641H-54.6719V369.672H12.3594V348.344C12.3594 347.536 12.6804 346.761 13.2518 346.189C13.8232 345.618 14.5982 345.297 15.4062 345.297C16.2143 345.297 16.9893 345.618 17.5607 346.189C18.1321 346.761 18.4531 347.536 18.4531 348.344V372.719C18.4531 373.527 18.1321 374.302 17.5607 374.873C16.9893 375.445 16.2143 375.766 15.4062 375.766H-57.7188ZM24.5469 375.766C23.7388 375.766 22.9638 375.445 22.3924 374.873C21.821 374.302 21.5 373.527 21.5 372.719V317.875C21.5 317.067 21.821 316.292 22.3924 315.721C22.9638 315.149 23.7388 314.828 24.5469 314.828H36.7344C37.5425 314.828 38.3174 315.149 38.8888 315.721C39.4602 316.292 39.7812 317.067 39.7812 317.875V372.719C39.7812 373.527 39.4602 374.302 38.8888 374.873C38.3174 375.445 37.5425 375.766 36.7344 375.766H24.5469ZM45.875 375.766C45.0669 375.766 44.2919 375.445 43.7205 374.873C43.1491 374.302 42.8281 373.527 42.8281 372.719V354.438C42.8281 353.629 43.1491 352.854 43.7205 352.283C44.2919 351.712 45.0669 351.391 45.875 351.391C46.6831 351.391 47.4581 351.712 48.0295 352.283C48.6009 352.854 48.9219 353.629 48.9219 354.438V369.672H97.6719V320.922H55.0156C54.2075 320.922 53.4326 320.601 52.8612 320.029C52.2898 319.458 51.9688 318.683 51.9688 317.875V308.734C51.9688 307.926 52.2898 307.151 52.8612 306.58C53.4326 306.009 54.2075 305.688 55.0156 305.688H100.719C101.527 305.688 102.302 306.009 102.873 306.58C103.445 307.151 103.766 307.926 103.766 308.734C103.766 309.542 103.445 310.317 102.873 310.889C102.302 311.46 101.527 311.781 100.719 311.781H58.0625V314.828H100.719C101.527 314.828 102.302 315.149 102.873 315.721C103.445 316.292 103.766 317.067 103.766 317.875V372.719C103.766 373.527 103.445 374.302 102.873 374.873C102.302 375.445 101.527 375.766 100.719 375.766H45.875ZM27.5938 369.672H33.6875V320.922H27.5938V369.672ZM-48.5781 366.625C-49.3862 366.625 -50.1612 366.304 -50.7326 365.733C-51.304 365.161 -51.625 364.386 -51.625 363.578V308.734C-51.625 307.926 -51.304 307.151 -50.7326 306.58C-50.1612 306.009 -49.3862 305.688 -48.5781 305.688H6.26562C7.07371 305.688 7.84869 306.009 8.42009 306.58C8.99149 307.151 9.3125 307.926 9.3125 308.734V363.578C9.3125 364.386 8.99149 365.161 8.42009 365.733C7.84869 366.304 7.07371 366.625 6.26562 366.625H-48.5781ZM64.1562 366.625C63.3482 366.625 62.5732 366.304 62.0018 365.733C61.4304 365.161 61.1094 364.386 61.1094 363.578C61.1094 362.77 61.4304 361.995 62.0018 361.424C62.5732 360.852 63.3482 360.531 64.1562 360.531H91.5781C92.3862 360.531 93.1612 360.852 93.7326 361.424C94.304 361.995 94.625 362.77 94.625 363.578C94.625 364.386 94.304 365.161 93.7326 365.733C93.1612 366.304 92.3862 366.625 91.5781 366.625H64.1562ZM54.9264 366.624C54.1341 366.6 53.3821 366.269 52.8299 365.701C52.2777 365.132 51.9688 364.371 51.9688 363.578V327.016C51.9688 326.208 52.2898 325.433 52.8612 324.861C53.4326 324.29 54.2075 323.969 55.0156 323.969C55.8237 323.969 56.5987 324.29 57.1701 324.861C57.7415 325.433 58.0625 326.208 58.0625 327.016V363.578C58.0625 363.986 57.9807 364.389 57.8219 364.765C57.6631 365.14 57.4307 365.48 57.1382 365.764C56.8458 366.048 56.4994 366.27 56.1194 366.418C55.7395 366.566 55.3338 366.635 54.9264 366.624V366.624ZM-45.5312 360.531H3.21875V311.781H-45.5312V360.531ZM-39.4375 357.484C-40.2456 357.484 -41.0206 357.163 -41.592 356.592C-42.1634 356.021 -42.4844 355.246 -42.4844 354.438V336.156C-42.4844 335.348 -42.1634 334.573 -41.592 334.002C-41.0206 333.43 -40.2456 333.109 -39.4375 333.109H-21.1562C-20.3482 333.109 -19.5732 333.43 -19.0018 334.002C-18.4304 334.573 -18.1094 335.348 -18.1094 336.156V354.438C-18.1094 355.246 -18.4304 356.021 -19.0018 356.592C-19.5732 357.163 -20.3482 357.484 -21.1562 357.484H-39.4375ZM64.1562 357.484C63.3482 357.484 62.5732 357.163 62.0018 356.592C61.4304 356.021 61.1094 355.246 61.1094 354.438V327.016C61.1094 326.208 61.4304 325.433 62.0018 324.861C62.5732 324.29 63.3482 323.969 64.1562 323.969C64.9643 323.969 65.7393 324.29 66.3107 324.861C66.8821 325.433 67.2031 326.208 67.2031 327.016V351.391H91.5781C92.3862 351.391 93.1612 351.712 93.7326 352.283C94.304 352.854 94.625 353.629 94.625 354.438C94.625 355.246 94.304 356.021 93.7326 356.592C93.1612 357.163 92.3862 357.484 91.5781 357.484H64.1562ZM-12.1049 357.483C-12.8971 357.46 -13.6492 357.129 -14.2014 356.56C-14.7536 355.991 -15.0625 355.23 -15.0625 354.438V330.062H-39.4375C-40.2456 330.062 -41.0206 329.741 -41.592 329.17C-42.1634 328.599 -42.4844 327.824 -42.4844 327.016C-42.4844 326.208 -42.1634 325.433 -41.592 324.861C-41.0206 324.29 -40.2456 323.969 -39.4375 323.969H-12.0156C-11.2075 323.969 -10.4326 324.29 -9.86116 324.861C-9.28976 325.433 -8.96875 326.208 -8.96875 327.016V354.438C-8.96877 354.845 -9.05059 355.249 -9.20935 355.624C-9.36811 355.999 -9.60059 356.339 -9.89302 356.623C-10.1855 356.907 -10.5319 357.13 -10.9118 357.277C-11.2917 357.425 -11.6974 357.495 -12.1049 357.483V357.483ZM-2.96426 357.483C-3.75652 357.46 -4.50854 357.129 -5.06073 356.56C-5.61293 355.991 -5.92183 355.23 -5.92188 354.438V317.875C-5.92188 317.067 -5.60087 316.292 -5.02947 315.721C-4.45807 315.149 -3.68308 314.828 -2.875 314.828C-2.06692 314.828 -1.29193 315.149 -0.720532 315.721C-0.149132 316.292 0.171875 317.067 0.171875 317.875V354.438C0.171851 354.845 0.0900354 355.249 -0.068725 355.624C-0.227485 355.999 -0.459965 356.339 -0.752396 356.623C-1.04483 356.907 -1.39126 357.13 -1.77119 357.277C-2.15112 357.425 -2.55682 357.495 -2.96426 357.483V357.483ZM-36.3906 351.391H-24.2031V339.203H-36.3906V351.391ZM73.2969 348.344C72.4888 348.344 71.7138 348.023 71.1424 347.451C70.571 346.88 70.25 346.105 70.25 345.297V327.016C70.25 326.208 70.571 325.433 71.1424 324.861C71.7138 324.29 72.4888 323.969 73.2969 323.969H91.5781C92.3862 323.969 93.1612 324.29 93.7326 324.861C94.304 325.433 94.625 326.208 94.625 327.016V345.297C94.625 346.105 94.304 346.88 93.7326 347.451C93.1612 348.023 92.3862 348.344 91.5781 348.344H73.2969ZM45.7857 348.342C44.9935 348.319 44.2415 347.988 43.6893 347.419C43.1371 346.851 42.8282 346.089 42.8281 345.297V311.781H18.4531V339.203C18.4531 340.011 18.1321 340.786 17.5607 341.358C16.9893 341.929 16.2143 342.25 15.4062 342.25C14.5982 342.25 13.8232 341.929 13.2518 341.358C12.6804 340.786 12.3594 340.011 12.3594 339.203V308.734C12.3594 307.926 12.6804 307.151 13.2518 306.58C13.8232 306.009 14.5982 305.688 15.4062 305.688H45.875C46.6831 305.688 47.4581 306.009 48.0295 306.58C48.6009 307.151 48.9219 307.926 48.9219 308.734V345.297C48.9219 345.704 48.84 346.108 48.6813 346.483C48.5225 346.859 48.29 347.199 47.9976 347.483C47.7052 347.767 47.3587 347.989 46.9788 348.137C46.5989 348.284 46.1932 348.354 45.7857 348.342V348.342ZM76.3438 342.25H88.5312V330.062H76.3438V342.25ZM-39.4375 320.922C-40.2456 320.922 -41.0206 320.601 -41.592 320.029C-42.1634 319.458 -42.4844 318.683 -42.4844 317.875C-42.4844 317.067 -42.1634 316.292 -41.592 315.721C-41.0206 315.149 -40.2456 314.828 -39.4375 314.828H-12.0156C-11.2075 314.828 -10.4326 315.149 -9.86116 315.721C-9.28976 316.292 -8.96875 317.067 -8.96875 317.875C-8.96875 318.683 -9.28976 319.458 -9.86116 320.029C-10.4326 320.601 -11.2075 320.922 -12.0156 320.922H-39.4375ZM-27.25 302.641C-28.0581 302.641 -28.8331 302.32 -29.4045 301.748C-29.9759 301.177 -30.2969 300.402 -30.2969 299.594C-30.2969 298.786 -29.9759 298.011 -29.4045 297.439C-28.8331 296.868 -28.0581 296.547 -27.25 296.547H100.719C101.527 296.547 102.302 296.868 102.873 297.439C103.445 298.011 103.766 298.786 103.766 299.594C103.766 300.402 103.445 301.177 102.873 301.748C102.302 302.32 101.527 302.641 100.719 302.641H-27.25ZM-57.7188 290.453C-58.5268 290.453 -59.3018 290.132 -59.8732 289.561C-60.4446 288.989 -60.7656 288.214 -60.7656 287.406C-60.7656 286.598 -60.4446 285.823 -59.8732 285.252C-59.3018 284.68 -58.5268 284.359 -57.7188 284.359H12.3594V214.281C12.3594 213.473 12.6804 212.698 13.2518 212.127C13.8232 211.555 14.5982 211.234 15.4062 211.234C16.2143 211.234 16.9893 211.555 17.5607 212.127C18.1321 212.698 18.4531 213.473 18.4531 214.281V287.406C18.4531 288.214 18.1321 288.989 17.5607 289.561C16.9893 290.132 16.2143 290.453 15.4062 290.453H-57.7188ZM27.5938 290.453C26.7857 290.453 26.0107 290.132 25.4393 289.561C24.8679 288.989 24.5469 288.214 24.5469 287.406V214.281C24.5469 213.473 24.8679 212.698 25.4393 212.127C26.0107 211.555 26.7857 211.234 27.5938 211.234H100.719C101.527 211.234 102.302 211.555 102.873 212.127C103.445 212.698 103.766 213.473 103.766 214.281V287.406C103.766 288.214 103.445 288.989 102.873 289.561C102.302 290.132 101.527 290.453 100.719 290.453H27.5938ZM30.6406 284.359H97.6719V217.328H30.6406V284.359ZM-57.7188 281.312C-58.5268 281.312 -59.3018 280.991 -59.8732 280.42C-60.4446 279.849 -60.7656 279.074 -60.7656 278.266C-60.7656 277.458 -60.4446 276.683 -59.8732 276.111C-59.3018 275.54 -58.5268 275.219 -57.7188 275.219H3.21875V253.891H-8.96875V266.078H-2.875C-2.06692 266.078 -1.29193 266.399 -0.720532 266.971C-0.149132 267.542 0.171875 268.317 0.171875 269.125C0.171875 269.933 -0.149132 270.708 -0.720532 271.279C-1.29193 271.851 -2.06692 272.172 -2.875 272.172H-12.0156C-12.8237 272.172 -13.5987 271.851 -14.1701 271.279C-14.7415 270.708 -15.0625 269.933 -15.0625 269.125V250.844C-15.0625 250.036 -14.7415 249.261 -14.1701 248.689C-13.5987 248.118 -12.8237 247.797 -12.0156 247.797H6.26562C7.07371 247.797 7.84869 248.118 8.42009 248.689C8.99149 249.261 9.3125 250.036 9.3125 250.844V278.266C9.3125 279.074 8.99149 279.849 8.42009 280.42C7.84869 280.991 7.07371 281.312 6.26562 281.312H-57.7188ZM36.6451 281.311C35.8529 281.288 35.1008 280.957 34.5486 280.388C33.9964 279.82 33.6875 279.058 33.6875 278.266V223.422C33.6875 222.614 34.0085 221.839 34.5799 221.267C35.1513 220.696 35.9263 220.375 36.7344 220.375H91.5781C92.3862 220.375 93.1612 220.696 93.7326 221.267C94.304 221.839 94.625 222.614 94.625 223.422V272.172C94.625 272.98 94.304 273.755 93.7326 274.326C93.1612 274.898 92.3862 275.219 91.5781 275.219C90.77 275.219 89.9951 274.898 89.4237 274.326C88.8523 273.755 88.5312 272.98 88.5312 272.172V226.469H39.7812V278.266C39.7812 278.673 39.6994 279.077 39.5407 279.452C39.3819 279.828 39.1494 280.167 38.857 280.451C38.5646 280.735 38.2181 280.958 37.8382 281.105C37.4582 281.253 37.0526 281.323 36.6451 281.311ZM-57.7188 272.172C-58.5268 272.172 -59.3018 271.851 -59.8732 271.279C-60.4446 270.708 -60.7656 269.933 -60.7656 269.125C-60.7656 268.317 -60.4446 267.542 -59.8732 266.971C-59.3018 266.399 -58.5268 266.078 -57.7188 266.078H-33.3438V214.281C-33.3438 213.473 -33.0227 212.698 -32.4513 212.127C-31.8799 211.555 -31.105 211.234 -30.2969 211.234C-29.4888 211.234 -28.7138 211.555 -28.1424 212.127C-27.571 212.698 -27.25 213.473 -27.25 214.281V269.125C-27.25 269.933 -27.571 270.708 -28.1424 271.279C-28.7138 271.851 -29.4888 272.172 -30.2969 272.172H-57.7188ZM-21.067 272.17C-21.4744 272.182 -21.8801 272.112 -22.2601 271.965C-22.64 271.817 -22.9864 271.595 -23.2789 271.311C-23.5713 271.027 -23.8038 270.687 -23.9625 270.312C-24.1213 269.936 -24.2031 269.533 -24.2031 269.125V214.281C-24.2031 213.473 -23.8821 212.698 -23.3107 212.127C-22.7393 211.555 -21.9643 211.234 -21.1562 211.234H6.26562C7.07371 211.234 7.84869 211.555 8.42009 212.127C8.99149 212.698 9.3125 213.473 9.3125 214.281C9.3125 215.089 8.99149 215.864 8.42009 216.436C7.84869 217.007 7.07371 217.328 6.26562 217.328H-18.1094V269.125C-18.1094 269.918 -18.4183 270.679 -18.9705 271.248C-19.5227 271.816 -20.2747 272.147 -21.067 272.17ZM48.9219 269.125C48.1138 269.125 47.3388 268.804 46.7674 268.233C46.196 267.661 45.875 266.886 45.875 266.078V235.609C45.875 234.801 46.196 234.026 46.7674 233.455C47.3388 232.884 48.1138 232.562 48.9219 232.562H79.3906C80.1987 232.562 80.9737 232.884 81.5451 233.455C82.1165 234.026 82.4375 234.801 82.4375 235.609V266.078C82.4375 266.886 82.1165 267.661 81.5451 268.233C80.9737 268.804 80.1987 269.125 79.3906 269.125H48.9219ZM-57.7188 263.031C-58.5268 263.031 -59.3018 262.71 -59.8732 262.139C-60.4446 261.567 -60.7656 260.792 -60.7656 259.984V241.703C-60.7656 240.895 -60.4446 240.12 -59.8732 239.549C-59.3018 238.977 -58.5268 238.656 -57.7188 238.656H-39.4375C-38.6294 238.656 -37.8544 238.977 -37.283 239.549C-36.7116 240.12 -36.3906 240.895 -36.3906 241.703V259.984C-36.3906 260.792 -36.7116 261.567 -37.283 262.139C-37.8544 262.71 -38.6294 263.031 -39.4375 263.031H-57.7188ZM51.9688 263.031H76.3438V238.656H51.9688V263.031ZM-54.6719 256.938H-42.4844V244.75H-54.6719V256.938ZM-12.0156 244.75C-12.8237 244.75 -13.5987 244.429 -14.1701 243.858C-14.7415 243.286 -15.0625 242.511 -15.0625 241.703V223.422C-15.0625 222.614 -14.7415 221.839 -14.1701 221.267C-13.5987 220.696 -12.8237 220.375 -12.0156 220.375H6.26562C7.07371 220.375 7.84869 220.696 8.42009 221.267C8.99149 221.839 9.3125 222.614 9.3125 223.422V241.703C9.3125 242.511 8.99149 243.286 8.42009 243.858C7.84869 244.429 7.07371 244.75 6.26562 244.75H-12.0156ZM-8.96875 238.656H3.21875V226.469H-8.96875V238.656ZM-57.7188 235.609C-58.5268 235.609 -59.3018 235.288 -59.8732 234.717C-60.4446 234.146 -60.7656 233.371 -60.7656 232.562C-60.7656 231.754 -60.4446 230.979 -59.8732 230.408C-59.3018 229.837 -58.5268 229.516 -57.7188 229.516H-39.4375C-38.6294 229.516 -37.8544 229.837 -37.283 230.408C-36.7116 230.979 -36.3906 231.754 -36.3906 232.562C-36.3906 233.371 -36.7116 234.146 -37.283 234.717C-37.8544 235.288 -38.6294 235.609 -39.4375 235.609H-57.7188ZM-57.7188 226.469C-58.5268 226.469 -59.3018 226.148 -59.8732 225.576C-60.4446 225.005 -60.7656 224.23 -60.7656 223.422C-60.7656 222.614 -60.4446 221.839 -59.8732 221.267C-59.3018 220.696 -58.5268 220.375 -57.7188 220.375H-39.4375C-38.6294 220.375 -37.8544 220.696 -37.283 221.267C-36.7116 221.839 -36.3906 222.614 -36.3906 223.422C-36.3906 224.23 -36.7116 225.005 -37.283 225.576C-37.8544 226.148 -38.6294 226.469 -39.4375 226.469H-57.7188ZM-57.7188 217.328C-58.5268 217.328 -59.3018 217.007 -59.8732 216.436C-60.4446 215.864 -60.7656 215.089 -60.7656 214.281C-60.7656 213.473 -60.4446 212.698 -59.8732 212.127C-59.3018 211.555 -58.5268 211.234 -57.7188 211.234H-39.4375C-38.6294 211.234 -37.8544 211.555 -37.283 212.127C-36.7116 212.698 -36.3906 213.473 -36.3906 214.281C-36.3906 215.089 -36.7116 215.864 -37.283 216.436C-37.8544 217.007 -38.6294 217.328 -39.4375 217.328H-57.7188Z" fill="black"/>
<path d="M310.953 384.906C310.953 385.714 310.632 386.489 310.061 387.061C309.489 387.632 308.714 387.953 307.906 387.953H125.094C124.286 387.953 123.511 387.632 122.939 387.061C122.368 386.489 122.047 385.714 122.047 384.906V202.094C122.047 201.286 122.368 200.511 122.939 199.939C123.511 199.368 124.286 199.047 125.094 199.047H307.906C308.714 199.047 309.489 199.368 310.061 199.939C310.632 200.511 310.953 201.286 310.953 202.094V384.906ZM304.859 381.859V205.141H128.141V381.859H304.859ZM298.766 372.719C298.766 373.527 298.445 374.302 297.873 374.873C297.302 375.445 296.527 375.766 295.719 375.766H222.594C221.786 375.766 221.011 375.445 220.439 374.873C219.868 374.302 219.547 373.527 219.547 372.719V354.438C219.547 353.629 219.868 352.854 220.439 352.283C221.011 351.712 221.786 351.391 222.594 351.391C223.402 351.391 224.177 351.712 224.748 352.283C225.32 352.854 225.641 353.629 225.641 354.438V369.672H292.672V302.641H271.344C270.536 302.641 269.761 302.32 269.189 301.748C268.618 301.177 268.297 300.402 268.297 299.594C268.297 298.786 268.618 298.011 269.189 297.439C269.761 296.868 270.536 296.547 271.344 296.547H295.719C296.527 296.547 297.302 296.868 297.873 297.439C298.445 298.011 298.766 298.786 298.766 299.594V372.719ZM298.766 290.453C298.766 291.261 298.445 292.036 297.873 292.608C297.302 293.179 296.527 293.5 295.719 293.5H240.875C240.067 293.5 239.292 293.179 238.721 292.608C238.149 292.036 237.828 291.261 237.828 290.453V278.266C237.828 277.458 238.149 276.683 238.721 276.111C239.292 275.54 240.067 275.219 240.875 275.219H295.719C296.527 275.219 297.302 275.54 297.873 276.111C298.445 276.683 298.766 277.458 298.766 278.266V290.453ZM298.766 269.125C298.766 269.933 298.445 270.708 297.873 271.279C297.302 271.851 296.527 272.172 295.719 272.172H277.438C276.629 272.172 275.854 271.851 275.283 271.279C274.712 270.708 274.391 269.933 274.391 269.125C274.391 268.317 274.712 267.542 275.283 266.971C275.854 266.399 276.629 266.078 277.438 266.078H292.672V217.328H243.922V259.984C243.922 260.792 243.601 261.567 243.029 262.139C242.458 262.71 241.683 263.031 240.875 263.031H231.734C230.926 263.031 230.151 262.71 229.58 262.139C229.009 261.567 228.688 260.792 228.688 259.984V214.281C228.688 213.473 229.009 212.698 229.58 212.127C230.151 211.555 230.926 211.234 231.734 211.234C232.542 211.234 233.317 211.555 233.889 212.127C234.46 212.698 234.781 213.473 234.781 214.281V256.938H237.828V214.281C237.828 213.473 238.149 212.698 238.721 212.127C239.292 211.555 240.067 211.234 240.875 211.234H295.719C296.527 211.234 297.302 211.555 297.873 212.127C298.445 212.698 298.766 213.473 298.766 214.281V269.125ZM292.672 287.406V281.312H243.922V287.406H292.672ZM289.625 363.578C289.625 364.386 289.304 365.161 288.733 365.733C288.161 366.304 287.386 366.625 286.578 366.625H231.734C230.926 366.625 230.151 366.304 229.58 365.733C229.009 365.161 228.688 364.386 228.688 363.578V308.734C228.688 307.926 229.009 307.151 229.58 306.58C230.151 306.009 230.926 305.688 231.734 305.688H286.578C287.386 305.688 288.161 306.009 288.733 306.58C289.304 307.151 289.625 307.926 289.625 308.734V363.578ZM289.625 250.844C289.625 251.652 289.304 252.427 288.733 252.998C288.161 253.57 287.386 253.891 286.578 253.891C285.77 253.891 284.995 253.57 284.424 252.998C283.852 252.427 283.531 251.652 283.531 250.844V223.422C283.531 222.614 283.852 221.839 284.424 221.267C284.995 220.696 285.77 220.375 286.578 220.375C287.386 220.375 288.161 220.696 288.733 221.267C289.304 221.839 289.625 222.614 289.625 223.422V250.844ZM289.624 260.074C289.6 260.866 289.269 261.618 288.701 262.17C288.132 262.722 287.371 263.031 286.578 263.031H250.016C249.208 263.031 248.433 262.71 247.861 262.139C247.29 261.567 246.969 260.792 246.969 259.984C246.969 259.176 247.29 258.401 247.861 257.83C248.433 257.259 249.208 256.938 250.016 256.938H286.578C286.986 256.938 287.389 257.019 287.765 257.178C288.14 257.337 288.48 257.569 288.764 257.862C289.048 258.154 289.27 258.501 289.418 258.881C289.566 259.261 289.635 259.666 289.624 260.074V260.074ZM283.531 360.531V311.781H234.781V360.531H283.531ZM280.484 354.438C280.484 355.246 280.163 356.021 279.592 356.592C279.021 357.163 278.246 357.484 277.438 357.484H259.156C258.348 357.484 257.573 357.163 257.002 356.592C256.43 356.021 256.109 355.246 256.109 354.438V336.156C256.109 335.348 256.43 334.573 257.002 334.002C257.573 333.43 258.348 333.109 259.156 333.109H277.438C278.246 333.109 279.021 333.43 279.592 334.002C280.163 334.573 280.484 335.348 280.484 336.156V354.438ZM280.484 250.844C280.484 251.652 280.163 252.427 279.592 252.998C279.021 253.57 278.246 253.891 277.438 253.891H250.016C249.208 253.891 248.433 253.57 247.861 252.998C247.29 252.427 246.969 251.652 246.969 250.844C246.969 250.036 247.29 249.261 247.861 248.689C248.433 248.118 249.208 247.797 250.016 247.797H274.391V223.422C274.391 222.614 274.712 221.839 275.283 221.267C275.854 220.696 276.629 220.375 277.438 220.375C278.246 220.375 279.021 220.696 279.592 221.267C280.163 221.839 280.484 222.614 280.484 223.422V250.844ZM280.483 327.105C280.46 327.897 280.129 328.649 279.56 329.201C278.991 329.754 278.23 330.062 277.438 330.062H253.062V354.438C253.062 355.246 252.741 356.021 252.17 356.592C251.599 357.163 250.824 357.484 250.016 357.484C249.208 357.484 248.433 357.163 247.861 356.592C247.29 356.021 246.969 355.246 246.969 354.438V327.016C246.969 326.208 247.29 325.433 247.861 324.861C248.433 324.29 249.208 323.969 250.016 323.969H277.438C277.845 323.969 278.249 324.051 278.624 324.209C278.999 324.368 279.339 324.601 279.623 324.893C279.907 325.185 280.13 325.532 280.277 325.912C280.425 326.292 280.495 326.697 280.483 327.105V327.105ZM280.483 317.964C280.46 318.757 280.129 319.509 279.56 320.061C278.991 320.613 278.23 320.922 277.438 320.922H240.875C240.067 320.922 239.292 320.601 238.721 320.029C238.149 319.458 237.828 318.683 237.828 317.875C237.828 317.067 238.149 316.292 238.721 315.721C239.292 315.149 240.067 314.828 240.875 314.828H277.438C277.845 314.828 278.249 314.91 278.624 315.069C278.999 315.227 279.339 315.46 279.623 315.752C279.907 316.045 280.13 316.391 280.277 316.771C280.425 317.151 280.495 317.557 280.483 317.964V317.964ZM274.391 351.391V339.203H262.203V351.391H274.391ZM271.344 241.703C271.344 242.511 271.023 243.286 270.451 243.858C269.88 244.429 269.105 244.75 268.297 244.75H250.016C249.208 244.75 248.433 244.429 247.861 243.858C247.29 243.286 246.969 242.511 246.969 241.703V223.422C246.969 222.614 247.29 221.839 247.861 221.267C248.433 220.696 249.208 220.375 250.016 220.375H268.297C269.105 220.375 269.88 220.696 270.451 221.267C271.023 221.839 271.344 222.614 271.344 223.422V241.703ZM271.342 269.214C271.319 270.007 270.988 270.759 270.419 271.311C269.851 271.863 269.089 272.172 268.297 272.172H234.781V296.547H262.203C263.011 296.547 263.786 296.868 264.358 297.439C264.929 298.011 265.25 298.786 265.25 299.594C265.25 300.402 264.929 301.177 264.358 301.748C263.786 302.32 263.011 302.641 262.203 302.641H231.734C230.926 302.641 230.151 302.32 229.58 301.748C229.009 301.177 228.688 300.402 228.688 299.594V269.125C228.688 268.317 229.009 267.542 229.58 266.971C230.151 266.399 230.926 266.078 231.734 266.078H268.297C268.704 266.078 269.108 266.16 269.483 266.319C269.859 266.477 270.199 266.71 270.483 267.002C270.767 267.295 270.989 267.641 271.137 268.021C271.284 268.401 271.354 268.807 271.342 269.214V269.214ZM265.25 238.656V226.469H253.062V238.656H265.25ZM243.922 354.438C243.922 355.246 243.601 356.021 243.029 356.592C242.458 357.163 241.683 357.484 240.875 357.484C240.067 357.484 239.292 357.163 238.721 356.592C238.149 356.021 237.828 355.246 237.828 354.438V327.016C237.828 326.208 238.149 325.433 238.721 324.861C239.292 324.29 240.067 323.969 240.875 323.969C241.683 323.969 242.458 324.29 243.029 324.861C243.601 325.433 243.922 326.208 243.922 327.016V354.438ZM225.641 342.25C225.641 343.058 225.32 343.833 224.748 344.404C224.177 344.976 223.402 345.297 222.594 345.297C221.786 345.297 221.011 344.976 220.439 344.404C219.868 343.833 219.547 343.058 219.547 342.25V214.281C219.547 213.473 219.868 212.698 220.439 212.127C221.011 211.555 221.786 211.234 222.594 211.234C223.402 211.234 224.177 211.555 224.748 212.127C225.32 212.698 225.641 213.473 225.641 214.281V342.25ZM213.453 372.719C213.453 373.527 213.132 374.302 212.561 374.873C211.989 375.445 211.214 375.766 210.406 375.766C209.598 375.766 208.823 375.445 208.252 374.873C207.68 374.302 207.359 373.527 207.359 372.719V302.641H137.281C136.473 302.641 135.698 302.32 135.127 301.748C134.555 301.177 134.234 300.402 134.234 299.594C134.234 298.786 134.555 298.011 135.127 297.439C135.698 296.868 136.473 296.547 137.281 296.547H210.406C211.214 296.547 211.989 296.868 212.561 297.439C213.132 298.011 213.453 298.786 213.453 299.594V372.719ZM213.453 287.406C213.453 288.214 213.132 288.989 212.561 289.561C211.989 290.132 211.214 290.453 210.406 290.453H137.281C136.473 290.453 135.698 290.132 135.127 289.561C134.555 288.989 134.234 288.214 134.234 287.406V214.281C134.234 213.473 134.555 212.698 135.127 212.127C135.698 211.555 136.473 211.234 137.281 211.234H210.406C211.214 211.234 211.989 211.555 212.561 212.127C213.132 212.698 213.453 213.473 213.453 214.281V287.406ZM207.359 284.359V217.328H140.328V284.359H207.359ZM204.312 372.719C204.312 373.527 203.991 374.302 203.42 374.873C202.849 375.445 202.074 375.766 201.266 375.766C200.458 375.766 199.683 375.445 199.111 374.873C198.54 374.302 198.219 373.527 198.219 372.719V311.781H176.891V323.969H189.078V317.875C189.078 317.067 189.399 316.292 189.971 315.721C190.542 315.149 191.317 314.828 192.125 314.828C192.933 314.828 193.708 315.149 194.279 315.721C194.851 316.292 195.172 317.067 195.172 317.875V327.016C195.172 327.824 194.851 328.599 194.279 329.17C193.708 329.741 192.933 330.062 192.125 330.062H173.844C173.036 330.062 172.261 329.741 171.689 329.17C171.118 328.599 170.797 327.824 170.797 327.016V308.734C170.797 307.926 171.118 307.151 171.689 306.58C172.261 306.009 173.036 305.688 173.844 305.688H201.266C202.074 305.688 202.849 306.009 203.42 306.58C203.991 307.151 204.312 307.926 204.312 308.734V372.719ZM204.311 278.355C204.288 279.147 203.957 279.899 203.388 280.451C202.82 281.004 202.058 281.312 201.266 281.312H146.422C145.614 281.312 144.839 280.991 144.267 280.42C143.696 279.849 143.375 279.074 143.375 278.266V223.422C143.375 222.614 143.696 221.839 144.267 221.267C144.839 220.696 145.614 220.375 146.422 220.375H195.172C195.98 220.375 196.755 220.696 197.326 221.267C197.898 221.839 198.219 222.614 198.219 223.422C198.219 224.23 197.898 225.005 197.326 225.576C196.755 226.148 195.98 226.469 195.172 226.469H149.469V275.219H201.266C201.673 275.219 202.077 275.301 202.452 275.459C202.828 275.618 203.167 275.851 203.451 276.143C203.735 276.435 203.958 276.782 204.105 277.162C204.253 277.542 204.323 277.947 204.311 278.355ZM195.172 372.719C195.172 373.527 194.851 374.302 194.279 374.873C193.708 375.445 192.933 375.766 192.125 375.766C191.317 375.766 190.542 375.445 189.971 374.873C189.399 374.302 189.078 373.527 189.078 372.719V348.344H137.281C136.473 348.344 135.698 348.023 135.127 347.451C134.555 346.88 134.234 346.105 134.234 345.297C134.234 344.489 134.555 343.714 135.127 343.142C135.698 342.571 136.473 342.25 137.281 342.25H192.125C192.933 342.25 193.708 342.571 194.279 343.142C194.851 343.714 195.172 344.489 195.172 345.297V372.719ZM195.17 336.067C195.182 336.474 195.112 336.88 194.965 337.26C194.817 337.64 194.595 337.986 194.311 338.279C194.027 338.571 193.687 338.804 193.312 338.963C192.936 339.121 192.533 339.203 192.125 339.203H137.281C136.473 339.203 135.698 338.882 135.127 338.311C134.555 337.739 134.234 336.964 134.234 336.156V308.734C134.234 307.926 134.555 307.151 135.127 306.58C135.698 306.009 136.473 305.688 137.281 305.688C138.089 305.688 138.864 306.009 139.436 306.58C140.007 307.151 140.328 307.926 140.328 308.734V333.109H192.125C192.918 333.109 193.679 333.418 194.248 333.971C194.816 334.523 195.147 335.275 195.17 336.067ZM192.125 266.078C192.125 266.886 191.804 267.661 191.233 268.233C190.661 268.804 189.886 269.125 189.078 269.125H158.609C157.801 269.125 157.026 268.804 156.455 268.233C155.884 267.661 155.562 266.886 155.562 266.078V235.609C155.562 234.801 155.884 234.026 156.455 233.455C157.026 232.884 157.801 232.562 158.609 232.562H189.078C189.886 232.562 190.661 232.884 191.233 233.455C191.804 234.026 192.125 234.801 192.125 235.609V266.078ZM186.031 372.719C186.031 373.527 185.71 374.302 185.139 374.873C184.567 375.445 183.792 375.766 182.984 375.766H164.703C163.895 375.766 163.12 375.445 162.549 374.873C161.977 374.302 161.656 373.527 161.656 372.719V354.438C161.656 353.629 161.977 352.854 162.549 352.283C163.12 351.712 163.895 351.391 164.703 351.391H182.984C183.792 351.391 184.567 351.712 185.139 352.283C185.71 352.854 186.031 353.629 186.031 354.438V372.719ZM186.031 263.031V238.656H161.656V263.031H186.031ZM179.938 369.672V357.484H167.75V369.672H179.938ZM167.75 327.016C167.75 327.824 167.429 328.599 166.858 329.17C166.286 329.741 165.511 330.062 164.703 330.062H146.422C145.614 330.062 144.839 329.741 144.267 329.17C143.696 328.599 143.375 327.824 143.375 327.016V308.734C143.375 307.926 143.696 307.151 144.267 306.58C144.839 306.009 145.614 305.688 146.422 305.688H164.703C165.511 305.688 166.286 306.009 166.858 306.58C167.429 307.151 167.75 307.926 167.75 308.734V327.016ZM161.656 323.969V311.781H149.469V323.969H161.656ZM158.609 372.719C158.609 373.527 158.288 374.302 157.717 374.873C157.146 375.445 156.371 375.766 155.562 375.766C154.754 375.766 153.979 375.445 153.408 374.873C152.837 374.302 152.516 373.527 152.516 372.719V354.438C152.516 353.629 152.837 352.854 153.408 352.283C153.979 351.712 154.754 351.391 155.562 351.391C156.371 351.391 157.146 351.712 157.717 352.283C158.288 352.854 158.609 353.629 158.609 354.438V372.719ZM149.469 372.719C149.469 373.527 149.148 374.302 148.576 374.873C148.005 375.445 147.23 375.766 146.422 375.766C145.614 375.766 144.839 375.445 144.267 374.873C143.696 374.302 143.375 373.527 143.375 372.719V354.438C143.375 353.629 143.696 352.854 144.267 352.283C144.839 351.712 145.614 351.391 146.422 351.391C147.23 351.391 148.005 351.712 148.576 352.283C149.148 352.854 149.469 353.629 149.469 354.438V372.719ZM140.328 372.719C140.328 373.527 140.007 374.302 139.436 374.873C138.864 375.445 138.089 375.766 137.281 375.766C136.473 375.766 135.698 375.445 135.127 374.873C134.555 374.302 134.234 373.527 134.234 372.719V354.438C134.234 353.629 134.555 352.854 135.127 352.283C135.698 351.712 136.473 351.391 137.281 351.391C138.089 351.391 138.864 351.712 139.436 352.283C140.007 352.854 140.328 353.629 140.328 354.438V372.719Z" fill="black"/>
<path d="M317.047 202.094C317.047 201.286 317.368 200.511 317.939 199.939C318.511 199.368 319.286 199.047 320.094 199.047H502.906C503.714 199.047 504.489 199.368 505.061 199.939C505.632 200.511 505.953 201.286 505.953 202.094V384.906C505.953 385.714 505.632 386.489 505.061 387.061C504.489 387.632 503.714 387.953 502.906 387.953H320.094C319.286 387.953 318.511 387.632 317.939 387.061C317.368 386.489 317.047 385.714 317.047 384.906V202.094ZM323.141 205.141V381.859H499.859V205.141H323.141ZM329.234 214.281C329.234 213.473 329.555 212.698 330.127 212.127C330.698 211.555 331.473 211.234 332.281 211.234H405.406C406.214 211.234 406.989 211.555 407.561 212.127C408.132 212.698 408.453 213.473 408.453 214.281V232.562C408.453 233.371 408.132 234.146 407.561 234.717C406.989 235.288 406.214 235.609 405.406 235.609C404.598 235.609 403.823 235.288 403.252 234.717C402.68 234.146 402.359 233.371 402.359 232.562V217.328H335.328V284.359H356.656C357.464 284.359 358.239 284.68 358.811 285.252C359.382 285.823 359.703 286.598 359.703 287.406C359.703 288.214 359.382 288.989 358.811 289.561C358.239 290.132 357.464 290.453 356.656 290.453H332.281C331.473 290.453 330.698 290.132 330.127 289.561C329.555 288.989 329.234 288.214 329.234 287.406V214.281ZM329.234 296.547C329.234 295.739 329.555 294.964 330.127 294.392C330.698 293.821 331.473 293.5 332.281 293.5H387.125C387.933 293.5 388.708 293.821 389.279 294.392C389.851 294.964 390.172 295.739 390.172 296.547V308.734C390.172 309.542 389.851 310.317 389.279 310.889C388.708 311.46 387.933 311.781 387.125 311.781H332.281C331.473 311.781 330.698 311.46 330.127 310.889C329.555 310.317 329.234 309.542 329.234 308.734V296.547ZM329.234 317.875C329.234 317.067 329.555 316.292 330.127 315.721C330.698 315.149 331.473 314.828 332.281 314.828H350.562C351.371 314.828 352.146 315.149 352.717 315.721C353.288 316.292 353.609 317.067 353.609 317.875C353.609 318.683 353.288 319.458 352.717 320.029C352.146 320.601 351.371 320.922 350.562 320.922H335.328V369.672H384.078V327.016C384.078 326.208 384.399 325.433 384.971 324.861C385.542 324.29 386.317 323.969 387.125 323.969H396.266C397.074 323.969 397.849 324.29 398.42 324.861C398.991 325.433 399.312 326.208 399.312 327.016V372.719C399.312 373.527 398.991 374.302 398.42 374.873C397.849 375.445 397.074 375.766 396.266 375.766C395.458 375.766 394.683 375.445 394.111 374.873C393.54 374.302 393.219 373.527 393.219 372.719V330.062H390.172V372.719C390.172 373.527 389.851 374.302 389.279 374.873C388.708 375.445 387.933 375.766 387.125 375.766H332.281C331.473 375.766 330.698 375.445 330.127 374.873C329.555 374.302 329.234 373.527 329.234 372.719V317.875ZM335.328 299.594V305.688H384.078V299.594H335.328ZM338.375 223.422C338.375 222.614 338.696 221.839 339.267 221.267C339.839 220.696 340.614 220.375 341.422 220.375H396.266C397.074 220.375 397.849 220.696 398.42 221.267C398.991 221.839 399.312 222.614 399.312 223.422V278.266C399.312 279.074 398.991 279.849 398.42 280.42C397.849 280.991 397.074 281.312 396.266 281.312H341.422C340.614 281.312 339.839 280.991 339.267 280.42C338.696 279.849 338.375 279.074 338.375 278.266V223.422ZM338.375 336.156C338.375 335.348 338.696 334.573 339.267 334.002C339.839 333.43 340.614 333.109 341.422 333.109C342.23 333.109 343.005 333.43 343.576 334.002C344.148 334.573 344.469 335.348 344.469 336.156V363.578C344.469 364.386 344.148 365.161 343.576 365.733C343.005 366.304 342.23 366.625 341.422 366.625C340.614 366.625 339.839 366.304 339.267 365.733C338.696 365.161 338.375 364.386 338.375 363.578V336.156ZM338.376 326.926C338.4 326.134 338.731 325.382 339.299 324.83C339.868 324.278 340.629 323.969 341.422 323.969H377.984C378.792 323.969 379.567 324.29 380.139 324.861C380.71 325.433 381.031 326.208 381.031 327.016C381.031 327.824 380.71 328.599 380.139 329.17C379.567 329.741 378.792 330.062 377.984 330.062H341.422C341.014 330.062 340.611 329.981 340.235 329.822C339.86 329.663 339.52 329.431 339.236 329.138C338.952 328.846 338.73 328.499 338.582 328.119C338.434 327.739 338.365 327.334 338.376 326.926V326.926ZM344.469 226.469V275.219H393.219V226.469H344.469ZM347.516 232.562C347.516 231.754 347.837 230.979 348.408 230.408C348.979 229.837 349.754 229.516 350.562 229.516H368.844C369.652 229.516 370.427 229.837 370.998 230.408C371.57 230.979 371.891 231.754 371.891 232.562V250.844C371.891 251.652 371.57 252.427 370.998 252.998C370.427 253.57 369.652 253.891 368.844 253.891H350.562C349.754 253.891 348.979 253.57 348.408 252.998C347.837 252.427 347.516 251.652 347.516 250.844V232.562ZM347.516 336.156C347.516 335.348 347.837 334.573 348.408 334.002C348.979 333.43 349.754 333.109 350.562 333.109H377.984C378.792 333.109 379.567 333.43 380.139 334.002C380.71 334.573 381.031 335.348 381.031 336.156C381.031 336.964 380.71 337.739 380.139 338.311C379.567 338.882 378.792 339.203 377.984 339.203H353.609V363.578C353.609 364.386 353.288 365.161 352.717 365.733C352.146 366.304 351.371 366.625 350.562 366.625C349.754 366.625 348.979 366.304 348.408 365.733C347.837 365.161 347.516 364.386 347.516 363.578V336.156ZM347.517 259.895C347.54 259.103 347.871 258.351 348.44 257.799C349.009 257.246 349.77 256.938 350.562 256.938H374.938V232.562C374.938 231.754 375.259 230.979 375.83 230.408C376.401 229.837 377.176 229.516 377.984 229.516C378.792 229.516 379.567 229.837 380.139 230.408C380.71 230.979 381.031 231.754 381.031 232.562V259.984C381.031 260.792 380.71 261.567 380.139 262.139C379.567 262.71 378.792 263.031 377.984 263.031H350.562C350.155 263.031 349.751 262.949 349.376 262.791C349.001 262.632 348.661 262.399 348.377 262.107C348.093 261.815 347.87 261.468 347.723 261.088C347.575 260.708 347.505 260.303 347.517 259.895V259.895ZM347.517 269.036C347.54 268.243 347.871 267.491 348.44 266.939C349.009 266.387 349.77 266.078 350.562 266.078H387.125C387.933 266.078 388.708 266.399 389.279 266.971C389.851 267.542 390.172 268.317 390.172 269.125C390.172 269.933 389.851 270.708 389.279 271.279C388.708 271.851 387.933 272.172 387.125 272.172H350.562C350.155 272.172 349.751 272.09 349.376 271.931C349.001 271.773 348.661 271.54 348.377 271.248C348.093 270.955 347.87 270.609 347.723 270.229C347.575 269.849 347.505 269.443 347.517 269.036V269.036ZM353.609 235.609V247.797H365.797V235.609H353.609ZM356.656 345.297C356.656 344.489 356.977 343.714 357.549 343.142C358.12 342.571 358.895 342.25 359.703 342.25H377.984C378.792 342.25 379.567 342.571 380.139 343.142C380.71 343.714 381.031 344.489 381.031 345.297V363.578C381.031 364.386 380.71 365.161 380.139 365.733C379.567 366.304 378.792 366.625 377.984 366.625H359.703C358.895 366.625 358.12 366.304 357.549 365.733C356.977 365.161 356.656 364.386 356.656 363.578V345.297ZM356.658 317.786C356.681 316.993 357.012 316.241 357.581 315.689C358.149 315.137 358.911 314.828 359.703 314.828H393.219V290.453H365.797C364.989 290.453 364.214 290.132 363.642 289.561C363.071 288.989 362.75 288.214 362.75 287.406C362.75 286.598 363.071 285.823 363.642 285.252C364.214 284.68 364.989 284.359 365.797 284.359H396.266C397.074 284.359 397.849 284.68 398.42 285.252C398.991 285.823 399.312 286.598 399.312 287.406V317.875C399.312 318.683 398.991 319.458 398.42 320.029C397.849 320.601 397.074 320.922 396.266 320.922H359.703C359.296 320.922 358.892 320.84 358.517 320.681C358.141 320.523 357.801 320.29 357.517 319.998C357.233 319.705 357.011 319.359 356.863 318.979C356.716 318.599 356.646 318.193 356.658 317.786V317.786ZM362.75 348.344V360.531H374.938V348.344H362.75ZM384.078 232.562C384.078 231.754 384.399 230.979 384.971 230.408C385.542 229.837 386.317 229.516 387.125 229.516C387.933 229.516 388.708 229.837 389.279 230.408C389.851 230.979 390.172 231.754 390.172 232.562V259.984C390.172 260.792 389.851 261.567 389.279 262.139C388.708 262.71 387.933 263.031 387.125 263.031C386.317 263.031 385.542 262.71 384.971 262.139C384.399 261.567 384.078 260.792 384.078 259.984V232.562ZM402.359 244.75C402.359 243.942 402.68 243.167 403.252 242.596C403.823 242.024 404.598 241.703 405.406 241.703C406.214 241.703 406.989 242.024 407.561 242.596C408.132 243.167 408.453 243.942 408.453 244.75V372.719C408.453 373.527 408.132 374.302 407.561 374.873C406.989 375.445 406.214 375.766 405.406 375.766C404.598 375.766 403.823 375.445 403.252 374.873C402.68 374.302 402.359 373.527 402.359 372.719V244.75ZM414.547 214.281C414.547 213.473 414.868 212.698 415.439 212.127C416.011 211.555 416.786 211.234 417.594 211.234C418.402 211.234 419.177 211.555 419.748 212.127C420.32 212.698 420.641 213.473 420.641 214.281V284.359H490.719C491.527 284.359 492.302 284.68 492.873 285.252C493.445 285.823 493.766 286.598 493.766 287.406C493.766 288.214 493.445 288.989 492.873 289.561C492.302 290.132 491.527 290.453 490.719 290.453H417.594C416.786 290.453 416.011 290.132 415.439 289.561C414.868 288.989 414.547 288.214 414.547 287.406V214.281ZM414.547 299.594C414.547 298.786 414.868 298.011 415.439 297.439C416.011 296.868 416.786 296.547 417.594 296.547H490.719C491.527 296.547 492.302 296.868 492.873 297.439C493.445 298.011 493.766 298.786 493.766 299.594V372.719C493.766 373.527 493.445 374.302 492.873 374.873C492.302 375.445 491.527 375.766 490.719 375.766H417.594C416.786 375.766 416.011 375.445 415.439 374.873C414.868 374.302 414.547 373.527 414.547 372.719V299.594ZM420.641 302.641V369.672H487.672V302.641H420.641ZM423.688 214.281C423.688 213.473 424.009 212.698 424.58 212.127C425.151 211.555 425.926 211.234 426.734 211.234C427.542 211.234 428.317 211.555 428.889 212.127C429.46 212.698 429.781 213.473 429.781 214.281V275.219H451.109V263.031H438.922V269.125C438.922 269.933 438.601 270.708 438.029 271.279C437.458 271.851 436.683 272.172 435.875 272.172C435.067 272.172 434.292 271.851 433.721 271.279C433.149 270.708 432.828 269.933 432.828 269.125V259.984C432.828 259.176 433.149 258.401 433.721 257.83C434.292 257.259 435.067 256.938 435.875 256.938H454.156C454.964 256.938 455.739 257.259 456.311 257.83C456.882 258.401 457.203 259.176 457.203 259.984V278.266C457.203 279.074 456.882 279.849 456.311 280.42C455.739 280.991 454.964 281.312 454.156 281.312H426.734C425.926 281.312 425.151 280.991 424.58 280.42C424.009 279.849 423.688 279.074 423.688 278.266V214.281ZM423.689 308.645C423.712 307.853 424.043 307.101 424.612 306.549C425.18 305.996 425.942 305.688 426.734 305.688H481.578C482.386 305.688 483.161 306.009 483.733 306.58C484.304 307.151 484.625 307.926 484.625 308.734V363.578C484.625 364.386 484.304 365.161 483.733 365.733C483.161 366.304 482.386 366.625 481.578 366.625H432.828C432.02 366.625 431.245 366.304 430.674 365.733C430.102 365.161 429.781 364.386 429.781 363.578C429.781 362.77 430.102 361.995 430.674 361.424C431.245 360.852 432.02 360.531 432.828 360.531H478.531V311.781H426.734C426.327 311.781 425.923 311.699 425.548 311.541C425.172 311.382 424.833 311.149 424.549 310.857C424.265 310.565 424.042 310.218 423.895 309.838C423.747 309.458 423.677 309.053 423.689 308.645ZM432.828 214.281C432.828 213.473 433.149 212.698 433.721 212.127C434.292 211.555 435.067 211.234 435.875 211.234C436.683 211.234 437.458 211.555 438.029 212.127C438.601 212.698 438.922 213.473 438.922 214.281V238.656H490.719C491.527 238.656 492.302 238.977 492.873 239.549C493.445 240.12 493.766 240.895 493.766 241.703C493.766 242.511 493.445 243.286 492.873 243.858C492.302 244.429 491.527 244.75 490.719 244.75H435.875C435.067 244.75 434.292 244.429 433.721 243.858C433.149 243.286 432.828 242.511 432.828 241.703V214.281ZM432.83 250.933C432.818 250.526 432.888 250.12 433.035 249.74C433.183 249.36 433.405 249.014 433.689 248.721C433.973 248.429 434.313 248.196 434.688 248.037C435.064 247.879 435.467 247.797 435.875 247.797H490.719C491.527 247.797 492.302 248.118 492.873 248.689C493.445 249.261 493.766 250.036 493.766 250.844V278.266C493.766 279.074 493.445 279.849 492.873 280.42C492.302 280.991 491.527 281.312 490.719 281.312C489.911 281.312 489.136 280.991 488.564 280.42C487.993 279.849 487.672 279.074 487.672 278.266V253.891H435.875C435.082 253.891 434.321 253.582 433.752 253.029C433.184 252.477 432.853 251.725 432.83 250.933ZM435.875 320.922C435.875 320.114 436.196 319.339 436.767 318.767C437.339 318.196 438.114 317.875 438.922 317.875H469.391C470.199 317.875 470.974 318.196 471.545 318.767C472.116 319.339 472.438 320.114 472.438 320.922V351.391C472.438 352.199 472.116 352.974 471.545 353.545C470.974 354.116 470.199 354.438 469.391 354.438H438.922C438.114 354.438 437.339 354.116 436.767 353.545C436.196 352.974 435.875 352.199 435.875 351.391V320.922ZM441.969 214.281C441.969 213.473 442.29 212.698 442.861 212.127C443.433 211.555 444.208 211.234 445.016 211.234H463.297C464.105 211.234 464.88 211.555 465.451 212.127C466.023 212.698 466.344 213.473 466.344 214.281V232.562C466.344 233.371 466.023 234.146 465.451 234.717C464.88 235.288 464.105 235.609 463.297 235.609H445.016C444.208 235.609 443.433 235.288 442.861 234.717C442.29 234.146 441.969 233.371 441.969 232.562V214.281ZM441.969 323.969V348.344H466.344V323.969H441.969ZM448.062 217.328V229.516H460.25V217.328H448.062ZM460.25 259.984C460.25 259.176 460.571 258.401 461.142 257.83C461.714 257.259 462.489 256.938 463.297 256.938H481.578C482.386 256.938 483.161 257.259 483.733 257.83C484.304 258.401 484.625 259.176 484.625 259.984V278.266C484.625 279.074 484.304 279.849 483.733 280.42C483.161 280.991 482.386 281.312 481.578 281.312H463.297C462.489 281.312 461.714 280.991 461.142 280.42C460.571 279.849 460.25 279.074 460.25 278.266V259.984ZM466.344 263.031V275.219H478.531V263.031H466.344ZM469.391 214.281C469.391 213.473 469.712 212.698 470.283 212.127C470.854 211.555 471.629 211.234 472.438 211.234C473.246 211.234 474.021 211.555 474.592 212.127C475.163 212.698 475.484 213.473 475.484 214.281V232.562C475.484 233.371 475.163 234.146 474.592 234.717C474.021 235.288 473.246 235.609 472.438 235.609C471.629 235.609 470.854 235.288 470.283 234.717C469.712 234.146 469.391 233.371 469.391 232.562V214.281ZM478.531 214.281C478.531 213.473 478.852 212.698 479.424 212.127C479.995 211.555 480.77 211.234 481.578 211.234C482.386 211.234 483.161 211.555 483.733 212.127C484.304 212.698 484.625 213.473 484.625 214.281V232.562C484.625 233.371 484.304 234.146 483.733 234.717C483.161 235.288 482.386 235.609 481.578 235.609C480.77 235.609 479.995 235.288 479.424 234.717C478.852 234.146 478.531 233.371 478.531 232.562V214.281ZM487.672 214.281C487.672 213.473 487.993 212.698 488.564 212.127C489.136 211.555 489.911 211.234 490.719 211.234C491.527 211.234 492.302 211.555 492.873 212.127C493.445 212.698 493.766 213.473 493.766 214.281V232.562C493.766 233.371 493.445 234.146 492.873 234.717C492.302 235.288 491.527 235.609 490.719 235.609C489.911 235.609 489.136 235.288 488.564 234.717C487.993 234.146 487.672 233.371 487.672 232.562V214.281Z" fill="black"/>
</g>
<defs>
<filter id="filter0_f_642_158" x="-29" y="0" width="593" height="203" filterUnits="userSpaceOnUse" color-interpolation-filters="sRGB">
<feFlood flood-opacity="0" result="BackgroundImageFix"/>
<feBlend mode="normal" in="SourceGraphic" in2="BackgroundImageFix" result="shape"/>
<feGaussianBlur stdDeviation="2" result="effect1_foregroundBlur_642_158"/>
</filter>
<filter id="filter1_f_642_158" x="-78" y="194" width="589" height="199" filterUnits="userSpaceOnUse" color-interpolation-filters="sRGB">
<feFlood flood-opacity="0" result="BackgroundImageFix"/>
<feBlend mode="normal" in="SourceGraphic" in2="BackgroundImageFix" result="shape"/>
<feGaussianBlur stdDeviation="1" result="effect1_foregroundBlur_642_158"/>
</filter>
</defs>
</svg>
